<?xml version="1.0" encoding="UTF-8"?>
<svg version="1.1" xmlns="http://www.w3.org/2000/svg" width="470" height="133">
<path d="M0 0 C-0.3125 2.375 -0.3125 2.375 -1 5 C-1.99 5.66 -2.98 6.32 -4 7 C-5.20450304 9.55183404 -5.20450304 9.55183404 -6 12 C-6.61875 11.835 -7.2375 11.67 -7.875 11.5 C-9.96063386 10.92365356 -9.96063386 10.92365356 -12 11 C-10.13433512 14.62793998 -10.13433512 14.62793998 -7 17 C-5.35329025 16.96805325 -3.70720387 16.89980853 -2.0625 16.8125 C5.52166312 16.74273766 11.84911076 18.96118932 18.1875 23.0625 C20 25 20 25 20 28 C20.99 28.33 21.98 28.66 23 29 C24.64820195 31.60242414 25 32.86248779 25 36 C25.99 36.33 26.98 36.66 28 37 C28 37.66 28 38.32 28 39 C29.35544922 38.94779297 29.35544922 38.94779297 30.73828125 38.89453125 C31.91777344 38.86746094 33.09726563 38.84039062 34.3125 38.8125 C35.48425781 38.77769531 36.65601563 38.74289063 37.86328125 38.70703125 C41 39 41 39 42.9375 40.28125 C44.71824701 43.16187016 43.65809108 45.82919754 43 49 C41.54494642 49.52992692 40.08581873 50.0486789 38.625 50.5625 C37.40683594 50.99755859 37.40683594 50.99755859 36.1640625 51.44140625 C34 52 34 52 32 51 C32.71542969 52.64548828 32.71542969 52.64548828 33.4453125 54.32421875 C35.36012049 59.44277793 35.66250067 64.38997254 35.875 69.8125 C35.93429688 70.75287109 35.99359375 71.69324219 36.0546875 72.66210938 C36.0959375 73.56380859 36.1371875 74.46550781 36.1796875 75.39453125 C36.23745361 76.61426636 36.23745361 76.61426636 36.29638672 77.85864258 C35.92579103 80.53615067 34.93839906 81.20720986 33 83 C32.83143741 86.07302576 33.06844891 89.02172403 33.28515625 92.08984375 C33 95 33 95 31.12109375 97.31640625 C26.09199077 101.30819885 20.16686354 100.52388404 14 100 C10.97052505 99.08896224 10.23243119 98.41846712 8 96 C7.59279225 93.6784192 7.25158376 91.34355737 7 89 C5.88963379 89.03552979 4.77926758 89.07105957 3.63525391 89.10766602 C-0.47575866 89.2378213 -4.58695435 89.36105649 -8.69824219 89.48217773 C-10.47922457 89.5356202 -12.26015131 89.59095129 -14.04101562 89.64819336 C-16.59753417 89.73004181 -19.15417445 89.8051453 -21.7109375 89.87890625 C-22.50994476 89.90594131 -23.30895203 89.93297638 -24.13217163 89.96083069 C-29.77225659 90.11387171 -29.77225659 90.11387171 -32 89 C-32.33 90.65 -32.66 92.3 -33 94 C-33.66 94 -34.32 94 -35 94 C-35.20625 94.556875 -35.4125 95.11375 -35.625 95.6875 C-39.51828655 102.2353001 -47.01043376 105.67014459 -54 108 C-63.2314083 108.68256473 -70.63605496 108.16676534 -79 104 C-80.66178021 103.3212447 -82.32733106 102.65146054 -84 102 C-84.46148437 102.4125 -84.92296875 102.825 -85.3984375 103.25 C-103.54921851 119.3202567 -103.54921851 119.3202567 -111.75 119.125 C-112.73484375 119.10695312 -113.7196875 119.08890625 -114.734375 119.0703125 C-115.48203125 119.04710937 -116.2296875 119.02390625 -117 119 C-116.5243519 114.56061775 -116.06833583 112.06250854 -112.8515625 108.86328125 C-110.2808513 106.83681972 -107.65705918 104.9112895 -105 103 C-103.82309519 102.01206975 -102.65427596 101.01427714 -101.5 100 C-99 98 -99 98 -97 98 C-97 97.34 -97 96.68 -97 96 C-95.37446717 94.29319053 -93.70884005 92.62339805 -92 91 C-92.2165625 90.42894531 -92.433125 89.85789062 -92.65625 89.26953125 C-96.07436199 79.31586255 -96.53238056 69.7668708 -92.078125 60.08984375 C-90.0838685 56.22416539 -88.24800012 52.93866678 -85 50 C-85.804375 49.79375 -86.60875 49.5875 -87.4375 49.375 C-88.7059375 48.694375 -88.7059375 48.694375 -90 48 C-90.8125 44.875 -90.8125 44.875 -91 42 C-87.78033381 39.10762848 -85.72849266 38.6332383 -81.4375 38.75 C-80.48746094 38.76546875 -79.53742188 38.7809375 -78.55859375 38.796875 C-76 39 -76 39 -73 40 C-72.95875 39.195625 -72.9175 38.39125 -72.875 37.5625 C-71.1400324 30.49870336 -66.86730612 25.04896668 -60.90625 20.97265625 C-54.31310404 17.60853054 -47.9476889 17.61167656 -40.6875 17.4375 C-33.40050613 17.2349638 -26.23464563 16.92243638 -19 16 C-19 15.34 -19 14.68 -19 14 C-20.65 13.67 -22.3 13.34 -24 13 C-24 13.66 -24 14.32 -24 15 C-26.31 15.33 -28.62 15.66 -31 16 C-30.8125 13.125 -30.8125 13.125 -30 10 C-27.4375 8.625 -27.4375 8.625 -25 8 C-25.99 7.01 -25.99 7.01 -27 6 C-27.7425 6.680625 -28.485 7.36125 -29.25 8.0625 C-32 10 -32 10 -34.3125 9.75 C-34.869375 9.5025 -35.42625 9.255 -36 9 C-36 6 -36 6 -35 3 C-36.65 3.66 -38.3 4.32 -40 5 C-41 4 -41 4 -41.4375 1.1875 C-41 -2 -41 -2 -38.8125 -4.1875 C-25.39466147 -11.62085656 -11.65857426 -9.3087841 0 0 Z M-33 0 C-33 0.66 -33 1.32 -33 2 C-30.13275314 1.42655063 -29.1385485 1.1385485 -27 -1 C-24.3984375 -1.1953125 -24.3984375 -1.1953125 -21.375 -1.125 C-19.87066406 -1.09792969 -19.87066406 -1.09792969 -18.3359375 -1.0703125 C-17.56507813 -1.04710937 -16.79421875 -1.02390625 -16 -1 C-16 -1.66 -16 -2.32 -16 -3 C-17.89510699 -3.08160748 -19.79124504 -3.13946459 -21.6875 -3.1875 C-22.74324219 -3.22230469 -23.79898438 -3.25710937 -24.88671875 -3.29296875 C-28.38158604 -2.96409165 -30.22938553 -2.12293836 -33 0 Z M-12 -1 C-12 -0.01 -12 0.98 -12 2 C-11.34 2 -10.68 2 -10 2 C-10.33 1.01 -10.66 0.02 -11 -1 C-11.33 -1 -11.66 -1 -12 -1 Z M-8 2 C-8 2.99 -8 3.98 -8 5 C-7.01 5.33 -6.02 5.66 -5 6 C-5.66 4.68 -6.32 3.36 -7 2 C-7.33 2 -7.66 2 -8 2 Z M-18 6 C-18 6.66 -18 7.32 -18 8 C-16.68 8.33 -15.36 8.66 -14 9 C-13.67 8.34 -13.34 7.68 -13 7 C-14.65 6.67 -16.3 6.34 -18 6 Z M-62 34 C-63.1500831 35.96672915 -63.1500831 35.96672915 -64 38 C-64.66273645 39.33529121 -65.3289 40.66889256 -66 42 C-65.24976563 42.02578125 -64.49953125 42.0515625 -63.7265625 42.078125 C-48.05333333 42.94666667 -48.05333333 42.94666667 -43 48 C-41.06693502 48.09396057 -39.13041162 48.11743517 -37.19506836 48.11352539 C-35.33325172 48.11341209 -35.33325172 48.11341209 -33.43382263 48.11329651 C-32.0691626 48.10818911 -30.70450298 48.1029731 -29.33984375 48.09765625 C-27.95121817 48.095792 -26.56259193 48.09436813 -25.17396545 48.09336853 C-21.51278885 48.08954387 -17.8516517 48.07971403 -14.19049072 48.06866455 C-10.45707737 48.05844932 -6.72365766 48.05387067 -2.99023438 48.04882812 C4.33986177 48.03809171 11.66992536 48.02101591 19 48 C18.77606567 46.09395996 18.77606567 46.09395996 18.54760742 44.14941406 C18.46363205 43.43464905 18.37965668 42.71988403 18.2931366 41.98345947 C17.50777657 36.66945295 15.11509835 32.90601741 11 29.5625 C6.69166491 27.31857547 3.33742095 26.8729907 -1.49951172 26.83886719 C-2.60100555 26.82925964 -3.70249939 26.8196521 -4.83737183 26.80975342 C-6.022836 26.80550354 -7.20830017 26.80125366 -8.4296875 26.796875 C-10.26432053 26.78832489 -10.26432053 26.78832489 -12.13601685 26.77960205 C-14.72331885 26.77015716 -17.31063285 26.7636201 -19.89794922 26.75976562 C-23.85275251 26.75005463 -27.80703729 26.71902318 -31.76171875 26.6875 C-34.27603858 26.68097029 -36.79036213 26.67571969 -39.3046875 26.671875 C-41.07681107 26.6533548 -41.07681107 26.6533548 -42.88473511 26.63446045 C-50.96374601 26.65634703 -56.54225097 27.56765293 -62 34 Z M-75 41 C-74 44 -74 44 -74 44 Z M27 43 C28 45 28 45 28 45 Z M-52 56 C-52.350625 56.70125 -52.70125 57.4025 -53.0625 58.125 C-55.34921311 61.51818719 -57.87874105 63.23850828 -61.2578125 65.47265625 C-63.32233293 67.28258335 -63.66073641 68.31239622 -64 71 C-64.00635246 73.63537508 -64.00635246 73.63537508 -63 76 C-60.42069649 77.57624103 -58.63698638 78 -55.625 78 C-52.30628211 76.73572652 -50.21523621 74.79081055 -47.6484375 72.375 C-46 71 -46 71 -43 70 C-41.65575702 67.00973956 -41.65575702 67.00973956 -43.0625 64.125 C-45.34910524 60.43692704 -47.52824154 58.56608234 -51 56 C-51.33 56 -51.66 56 -52 56 Z M4 68 C3.83318891 71.08347826 3.83318891 71.08347826 4 74 C7.34939881 76.02558881 9.86962551 76.21738987 13.75 76.125 C14.73484375 76.10695313 15.7196875 76.08890625 16.734375 76.0703125 C17.48203125 76.04710938 18.2296875 76.02390625 19 76 C20.49106457 73.01787087 20.11941467 70.28390342 20 67 C18.12756019 65.12756019 15.06340482 65.82619608 12.5625 65.8125 C11.38816406 65.79832031 10.21382813 65.78414063 9.00390625 65.76953125 C5.88503098 65.68100744 5.88503098 65.68100744 4 68 Z M-82 82 C-81 84 -81 84 -81 84 Z M-80 85 C-79 87 -79 87 -79 87 Z " fill="#0F5079" transform="translate(160,14)"/>
<path d="M0 0 C0.66 0 1.32 0 2 0 C2 1.65 2 3.3 2 5 C0.02 5.99 0.02 5.99 -2 7 C-2 7.66 -2 8.32 -2 9 C-1.34 9.66 -0.68 10.32 0 11 C-0.375 14.125 -0.375 14.125 -1 17 C0.32 16.67 1.64 16.34 3 16 C3 15.34 3 14.68 3 14 C3.79664063 13.93941406 4.59328125 13.87882812 5.4140625 13.81640625 C13.24332697 13.20332134 13.24332697 13.20332134 21 12 C21 12.66 21 13.32 21 14 C21.66 14 22.32 14 23 14 C24.4375 15.6796875 24.4375 15.6796875 26 17.875 C27.59356457 20.09802257 29.06234725 22.06234725 31 24 C30.625 26.125 30.625 26.125 30 28 C29.13375 26.6078125 29.13375 26.6078125 28.25 25.1875 C26.28365288 22.40184158 24.81962028 20.81261304 22 19 C21.505 19.70125 21.01 20.4025 20.5 21.125 C18.26080288 23.70007669 16.55328154 24.99831957 13.75 26.8125 C10.76273282 28.89056244 10.76273282 28.89056244 9.484375 32.16015625 C9.45386278 34.61918394 9.45386278 34.61918394 10 38 C13.07309226 38.8465231 15.81366932 39.3013429 19 39 C21.39561869 37.44054839 23.20978149 35.73310208 25.17578125 33.6640625 C27.1841794 31.83199053 28.31828585 31.28904703 31 31 C32.485 31.495 32.485 31.495 34 32 C34 36.19887289 33.69262171 39.84426972 33 44 C32.814375 45.7634375 32.814375 45.7634375 32.625 47.5625 C31.99261339 51.04062638 31.0037542 53.12504832 29 56 C29.763125 55.505 30.52625 55.01 31.3125 54.5 C34 53 34 53 37 53 C37.495 52.01 37.495 52.01 38 51 C39.485 51.495 39.485 51.495 41 52 C40.67 53.32 40.34 54.64 40 56 C39.34 56 38.68 56 38 56 C37.690625 56.8353125 37.690625 56.8353125 37.375 57.6875 C33.48171345 64.2353001 25.98956624 67.67014459 19 70 C9.7685917 70.68256473 2.36394504 70.16676534 -6 66 C-7.66178021 65.3212447 -9.32733106 64.65146054 -11 64 C-11.46148437 64.4125 -11.92296875 64.825 -12.3984375 65.25 C-30.54921851 81.3202567 -30.54921851 81.3202567 -38.75 81.125 C-39.73484375 81.10695313 -40.7196875 81.08890625 -41.734375 81.0703125 C-42.48203125 81.04710937 -43.2296875 81.02390625 -44 81 C-43.5243519 76.56061775 -43.06833583 74.06250854 -39.8515625 70.86328125 C-37.2808513 68.83681972 -34.65705918 66.9112895 -32 65 C-30.82309519 64.01206975 -29.65427596 63.01427714 -28.5 62 C-26 60 -26 60 -24 60 C-24 59.34 -24 58.68 -24 58 C-22.37446717 56.29319053 -20.70884005 54.62339805 -19 53 C-19.2165625 52.42894531 -19.433125 51.85789063 -19.65625 51.26953125 C-23.07436199 41.31586255 -23.53238056 31.7668708 -19.078125 22.08984375 C-17.0838685 18.22416539 -15.24800012 14.93866678 -12 12 C-13.2065625 11.690625 -13.2065625 11.690625 -14.4375 11.375 C-15.283125 10.92125 -16.12875 10.4675 -17 10 C-17.8125 6.875 -17.8125 6.875 -18 4 C-14.78033381 1.10762848 -12.72849266 0.6332383 -8.4375 0.75 C-7.48746094 0.76546875 -6.53742188 0.7809375 -5.55859375 0.796875 C-3 1 -3 1 0 2 C0 1.34 0 0.68 0 0 Z M-2 3 C-1 6 -1 6 -1 6 Z M-9 44 C-8 46 -8 46 -8 46 Z M-7 47 C-6 49 -6 49 -6 49 Z " fill="#0F4F77" transform="translate(87,52)"/>
<path d="M0 0 C3.375 1.6875 3.375 1.6875 4.375 3.6875 C5.30330112 9.87617414 2.2737914 14.44896983 -0.625 19.6875 C0.365 20.6775 0.365 20.6775 1.375 21.6875 C1.87 21.1925 1.87 21.1925 2.375 20.6875 C4.78640721 20.53288449 7.14950571 20.45579759 9.5625 20.4375 C10.87605469 20.41171875 12.18960938 20.3859375 13.54296875 20.359375 C19.07792686 20.83331637 22.04657004 22.18751783 25.734375 26.3515625 C27.77543456 30.50171694 27.83836292 33.52443488 27.625 38.0625 C27.60695313 38.79855469 27.58890625 39.53460938 27.5703125 40.29296875 C27.52359176 42.09171736 27.45186183 43.88978711 27.375 45.6875 C24.735 45.6875 22.095 45.6875 19.375 45.6875 C18.43551636 42.53876186 18.29755192 39.77702193 18.375 36.5 C18.412569 34.89627332 18.42173183 33.29098584 18.375 31.6875 C17.30854885 30.39116379 17.30854885 30.39116379 14.8125 30.625 C14.008125 30.645625 13.20375 30.66625 12.375 30.6875 C10.99273984 33.45202033 11.27974613 35.7336363 11.3125 38.8125 C11.32152344 39.90820312 11.33054687 41.00390625 11.33984375 42.1328125 C11.35144531 42.97585937 11.36304688 43.81890625 11.375 44.6875 C8.0889969 46.64609952 5.63251883 46.93408188 1.83203125 46.91796875 C0.75759766 46.91603516 -0.31683594 46.91410156 -1.42382812 46.91210938 C-2.54208984 46.89986328 -3.66035156 46.88761719 -4.8125 46.875 C-5.91142578 46.87435547 -7.01035156 46.87371094 -8.14257812 46.87304688 C-13.01219019 46.846913 -17.7805715 46.73501582 -22.61328125 46.11328125 C-25.89287031 45.69160917 -28.38717669 45.91993588 -31.625 46.6875 C-43.94567879 46.90338173 -43.94567879 46.90338173 -48.375 43.25 C-50.625 40.6875 -50.625 40.6875 -51.625 38.6875 C-52.285 40.9975 -52.945 43.3075 -53.625 45.6875 C-56.265 45.6875 -58.905 45.6875 -61.625 45.6875 C-61.68558594 44.68847656 -61.74617188 43.68945312 -61.80859375 42.66015625 C-61.89238281 41.36980469 -61.97617188 40.07945313 -62.0625 38.75 C-62.14371094 37.46222656 -62.22492188 36.17445312 -62.30859375 34.84765625 C-62.27419188 31.82726043 -62.27419188 31.82726043 -63.625 30.6875 C-65.29117115 30.64686168 -66.95888095 30.644779 -68.625 30.6875 C-70.04134833 33.52019666 -69.9713005 36.16216438 -70.1875 39.3125 C-70.27128906 40.50101563 -70.35507813 41.68953125 -70.44140625 42.9140625 C-70.50199219 43.82929687 -70.56257813 44.74453125 -70.625 45.6875 C-73.265 45.6875 -75.905 45.6875 -78.625 45.6875 C-78.68558594 44.68847656 -78.74617188 43.68945312 -78.80859375 42.66015625 C-78.89238281 41.36980469 -78.97617188 40.07945313 -79.0625 38.75 C-79.14371094 37.46222656 -79.22492188 36.17445312 -79.30859375 34.84765625 C-79.27419188 31.82726043 -79.27419188 31.82726043 -80.625 30.6875 C-82.29117115 30.64686168 -83.95888095 30.644779 -85.625 30.6875 C-86.47181133 35.76836796 -86.71538099 40.53578377 -86.625 45.6875 C-88.10406892 45.71439216 -89.58327483 45.73384621 -91.0625 45.75 C-91.88621094 45.76160156 -92.70992187 45.77320313 -93.55859375 45.78515625 C-95.625 45.6875 -95.625 45.6875 -96.625 44.6875 C-96.66665756 41.91429701 -96.61891013 39.20444737 -96.5 36.4375 C-96.4896875 35.67308594 -96.479375 34.90867188 -96.46875 34.12109375 C-96.27771334 29.86685421 -95.9924295 28.13889637 -93.21484375 24.7265625 C-89.25290222 21.60720582 -86.63492153 20.42663187 -81.625 21 C-79.34159413 21.35129321 -77.17922615 21.80153517 -74.9375 22.375 C-72.55782082 22.89593951 -72.55782082 22.89593951 -70.25 21.6875 C-66.53630697 20.2727598 -64.4584633 20.64791673 -60.625 21.6875 C-57.78142436 23.48843124 -55.18868423 25.51003314 -52.625 27.6875 C-51.305 27.0275 -49.985 26.3675 -48.625 25.6875 C-48.625 25.0275 -48.625 24.3675 -48.625 23.6875 C-44.34546801 21.11978081 -41.42060534 20.46609982 -36.5859375 20.6328125 C-33.76986111 20.71134849 -31.33470015 20.46170004 -28.625 19.6875 C-27.18862302 17.73586882 -27.18862302 17.73586882 -26.625 15.6875 C-23.985 15.6875 -21.345 15.6875 -18.625 15.6875 C-18.625 18.9875 -18.625 22.2875 -18.625 25.6875 C-17.26881501 24.56215895 -17.26881501 24.56215895 -17.5625 21.625 C-17.583125 20.655625 -17.60375 19.68625 -17.625 18.6875 C-16.965 19.0175 -16.305 19.3475 -15.625 19.6875 C-14.25157169 19.7564472 -12.87497898 19.77217708 -11.5 19.75 C-9.581875 19.7190625 -9.581875 19.7190625 -7.625 19.6875 C-7.295 19.0275 -6.965 18.3675 -6.625 17.6875 C-8.08902711 12.85023814 -8.08902711 12.85023814 -11.625 9.6875 C-9.71849221 1.91481439 -9.71849221 1.91481439 -6.625 -0.3125 C-3.625 -1.3125 -3.625 -1.3125 0 0 Z M-4.625 3.6875 C-4.625 5.6675 -4.625 7.6475 -4.625 9.6875 C-3.305 9.6875 -1.985 9.6875 -0.625 9.6875 C-0.295 8.3675 0.035 7.0475 0.375 5.6875 C-2.1 4.6975 -2.1 4.6975 -4.625 3.6875 Z M-5.625 18.6875 C-4.625 20.6875 -4.625 20.6875 -4.625 20.6875 Z M-7.625 20.6875 C-7.80675781 21.38617188 -7.98851562 22.08484375 -8.17578125 22.8046875 C-8.42714844 23.71476562 -8.67851562 24.62484375 -8.9375 25.5625 C-9.18113281 26.46742187 -9.42476563 27.37234375 -9.67578125 28.3046875 C-10.625 30.6875 -10.625 30.6875 -13.625 32.6875 C-12.09791037 36.12345166 -10.02572955 38.80662454 -7.625 41.6875 C-6.51334768 37.2496439 -6.50972237 32.91793614 -6.5625 28.375 C-6.56701172 27.63443359 -6.57152344 26.89386719 -6.57617188 26.13085938 C-6.58787825 24.31637101 -6.60581102 22.50192466 -6.625 20.6875 C-6.955 20.6875 -7.285 20.6875 -7.625 20.6875 Z M-42.625 29.6875 C-43.615 31.1725 -43.615 31.1725 -44.625 32.6875 C-44.04166667 35.35416667 -44.04166667 35.35416667 -42.625 37.6875 C-41.635 38.0175 -40.645 38.3475 -39.625 38.6875 C-37.47932087 36.95894074 -37.47932087 36.95894074 -35.625 34.6875 C-35.81515254 32.46905374 -36.04022155 31.27227845 -37.625 29.6875 C-40.08292029 29.35406449 -40.08292029 29.35406449 -42.625 29.6875 Z M-53.625 30.6875 C-52.625 32.6875 -52.625 32.6875 -52.625 32.6875 Z M-53.625 33.6875 C-52.625 35.6875 -52.625 35.6875 -52.625 35.6875 Z M-18.625 40.6875 C-18.625 41.3475 -18.625 42.0075 -18.625 42.6875 C-17.965 42.3575 -17.305 42.0275 -16.625 41.6875 C-17.285 41.3575 -17.945 41.0275 -18.625 40.6875 Z M-7.625 41.6875 C-6.625 43.6875 -6.625 43.6875 -6.625 43.6875 Z " fill="#144C73" transform="translate(305.625,51.3125)"/>
<path d="M0 0 C-0.3125 2.375 -0.3125 2.375 -1 5 C-1.99 5.66 -2.98 6.32 -4 7 C-5.20450304 9.55183404 -5.20450304 9.55183404 -6 12 C-6.61875 11.835 -7.2375 11.67 -7.875 11.5 C-9.96063386 10.92365356 -9.96063386 10.92365356 -12 11 C-10.13433512 14.62793998 -10.13433512 14.62793998 -7 17 C-5.35329025 16.96805325 -3.70720387 16.89980853 -2.0625 16.8125 C5.52166312 16.74273766 11.84911076 18.96118932 18.1875 23.0625 C20 25 20 25 20 28 C21.485 28.495 21.485 28.495 23 29 C24.64820195 31.60242414 25 32.86248779 25 36 C26.485 36.495 26.485 36.495 28 37 C28 37.66 28 38.32 28 39 C29.35544922 38.94779297 29.35544922 38.94779297 30.73828125 38.89453125 C31.91777344 38.86746094 33.09726563 38.84039062 34.3125 38.8125 C35.48425781 38.77769531 36.65601563 38.74289063 37.86328125 38.70703125 C41 39 41 39 42.9375 40.28125 C44.71824701 43.16187016 43.65809108 45.82919754 43 49 C41.54494642 49.52992692 40.08581873 50.0486789 38.625 50.5625 C37.81289062 50.85253906 37.00078125 51.14257812 36.1640625 51.44140625 C34 52 34 52 32 51 C32 50.34 32 49.68 32 49 C33.32 49 34.64 49 36 49 C36.268125 48.401875 36.53625 47.80375 36.8125 47.1875 C37.98493467 45.02775192 39.19369282 43.64209744 41 42 C38.36 42.66 35.72 43.32 33 44 C33 43.34 33 42.68 33 42 C30.02934491 42.34227572 30.02934491 42.34227572 27 43 C26.505 43.99 26.505 43.99 26 45 C24.515 45.495 24.515 45.495 23 46 C23 45.34 23 44.68 23 44 C22.34 44 21.68 44 21 44 C20.67 44.99 20.34 45.98 20 47 C18.45246124 44.06782129 17.33720403 41.12809579 16.25 38 C14.41567551 33.35258832 12.62108505 31.21426992 8 29 C4.79650605 27.99266799 1.85018877 27.8624986 -1.49951172 27.83886719 C-2.60100555 27.82925964 -3.70249939 27.8196521 -4.83737183 27.80975342 C-6.022836 27.80550354 -7.20830017 27.80125366 -8.4296875 27.796875 C-10.26432053 27.78832489 -10.26432053 27.78832489 -12.13601685 27.77960205 C-14.72331885 27.77015716 -17.31063285 27.7636201 -19.89794922 27.75976562 C-23.85275251 27.75005463 -27.80703729 27.71902318 -31.76171875 27.6875 C-34.27603858 27.68097029 -36.79036213 27.67571969 -39.3046875 27.671875 C-41.07681107 27.6533548 -41.07681107 27.6533548 -42.88473511 27.63446045 C-49.65024251 27.65278866 -54.20260262 28.15195196 -59.75 32.3125 C-61.48961597 34.66098156 -62.09947113 37.23837815 -63 40 C-63.99 40.495 -63.99 40.495 -65 41 C-63.98292969 41.03867188 -63.98292969 41.03867188 -62.9453125 41.078125 C-56.53917366 41.46852681 -47.83233158 42.16766842 -43 47 C-41.06776005 47.12357078 -39.13106201 47.17794458 -37.19506836 47.20532227 C-35.95385727 47.22526749 -34.71264618 47.24521271 -33.43382263 47.26576233 C-32.0691643 47.28274793 -30.70450463 47.29962669 -29.33984375 47.31640625 C-27.95121125 47.33696936 -26.5625851 47.35796566 -25.17396545 47.37937927 C-21.51285941 47.43466647 -17.85169627 47.48404626 -14.19049072 47.53222656 C-10.45702003 47.58239321 -6.72363262 47.63810446 -2.99023438 47.69335938 C4.3397733 47.80102218 11.66985005 47.90244894 19 48 C18.505 48.99 18.505 48.99 18 50 C-13.68 49.505 -13.68 49.505 -46 49 C-46 48.34 -46 47.68 -46 47 C-46.99 47 -47.98 47 -49 47 C-49 46.34 -49 45.68 -49 45 C-50.485 45.495 -50.485 45.495 -52 46 C-54.3046875 45.66015625 -54.3046875 45.66015625 -56.875 45.0625 C-60.34188734 44.2620413 -63.43853335 43.89149654 -67 44 C-67.99 40.535 -67.99 40.535 -69 37 C-69.99 37 -70.98 37 -72 37 C-71.16850167 31.03215755 -68.14487586 27.23997818 -64 23 C-58.87026811 19.55829689 -53.71292577 17.91020838 -47.5546875 17.71875 C-46.47703125 17.68136719 -45.399375 17.64398437 -44.2890625 17.60546875 C-42.59910156 17.55326172 -42.59910156 17.55326172 -40.875 17.5 C-33.53020986 17.26833022 -26.292912 16.92510512 -19 16 C-19 15.34 -19 14.68 -19 14 C-20.65 13.67 -22.3 13.34 -24 13 C-24 13.66 -24 14.32 -24 15 C-26.31 15.33 -28.62 15.66 -31 16 C-30.8125 13.125 -30.8125 13.125 -30 10 C-27.4375 8.625 -27.4375 8.625 -25 8 C-25.66 7.34 -26.32 6.68 -27 6 C-28.11375 7.0209375 -28.11375 7.0209375 -29.25 8.0625 C-32 10 -32 10 -34.3125 9.75 C-34.869375 9.5025 -35.42625 9.255 -36 9 C-36 6 -36 6 -35 3 C-36.65 3.66 -38.3 4.32 -40 5 C-41 4 -41 4 -41.4375 1.1875 C-41 -2 -41 -2 -38.8125 -4.1875 C-25.39466147 -11.62085656 -11.65857426 -9.3087841 0 0 Z M-33 0 C-33 0.66 -33 1.32 -33 2 C-30.13275314 1.42655063 -29.1385485 1.1385485 -27 -1 C-24.3984375 -1.1953125 -24.3984375 -1.1953125 -21.375 -1.125 C-19.87066406 -1.09792969 -19.87066406 -1.09792969 -18.3359375 -1.0703125 C-17.56507813 -1.04710937 -16.79421875 -1.02390625 -16 -1 C-16 -1.66 -16 -2.32 -16 -3 C-17.89510699 -3.08160748 -19.79124504 -3.13946459 -21.6875 -3.1875 C-22.74324219 -3.22230469 -23.79898438 -3.25710937 -24.88671875 -3.29296875 C-28.38158604 -2.96409165 -30.22938553 -2.12293836 -33 0 Z M-12 -1 C-12 -0.01 -12 0.98 -12 2 C-11.34 2 -10.68 2 -10 2 C-10.33 1.01 -10.66 0.02 -11 -1 C-11.33 -1 -11.66 -1 -12 -1 Z M-8 2 C-8 2.99 -8 3.98 -8 5 C-7.01 5.33 -6.02 5.66 -5 6 C-5.66 4.68 -6.32 3.36 -7 2 C-7.33 2 -7.66 2 -8 2 Z M-18 6 C-18 6.66 -18 7.32 -18 8 C-16.68 8.33 -15.36 8.66 -14 9 C-13.67 8.34 -13.34 7.68 -13 7 C-14.65 6.67 -16.3 6.34 -18 6 Z " fill="#174F73" transform="translate(160,14)"/>
<path d="M0 0 C2.625 0.5 2.625 0.5 4.9375 2.9375 C6.625 5.5 6.625 5.5 6.625 6.5 C9.265 6.5 11.905 6.5 14.625 6.5 C16.21206842 10.6077065 16.72691901 12.09232396 15.625 16.5 C12.325 16.5 9.025 16.5 5.625 16.5 C5.295 18.48 4.965 20.46 4.625 22.5 C5.615 22.5 6.605 22.5 7.625 22.5 C7.625 23.16 7.625 23.82 7.625 24.5 C8.49511719 24.37431641 8.49511719 24.37431641 9.3828125 24.24609375 C14.04815303 23.63790579 17.97942117 23.42794335 22.625 24.5 C22.5425 23.30375 22.46 22.1075 22.375 20.875 C22.375 16.38605784 23.71586733 13.97479736 26.625 10.5 C29.92531648 7.41586544 32.20401332 7.13258975 36.66796875 7.171875 C38.40143555 7.17960937 38.40143555 7.17960937 40.16992188 7.1875 C41.97299805 7.2184375 41.97299805 7.2184375 43.8125 7.25 C45.02615234 7.25515625 46.23980469 7.2603125 47.49023438 7.265625 C56.47103508 7.34603508 56.47103508 7.34603508 57.625 8.5 C57.83483279 10.64204311 57.99323385 12.78924113 58.125 14.9375 C58.26647326 19.37784331 58.26647326 19.37784331 59.625 23.5 C61.97407875 24.18931344 61.97407875 24.18931344 64.6875 24.625 C65.60660156 24.79257813 66.52570313 24.96015625 67.47265625 25.1328125 C68.18292969 25.25398438 68.89320313 25.37515625 69.625 25.5 C69.625 27.48 69.625 29.46 69.625 31.5 C65.58627297 33.89711974 62.593974 33.66526459 58.0390625 33.12109375 C54.51890057 32.21542102 52.8095028 30.31871329 50.625 27.5 C50.295 27.17 49.965 26.84 49.625 26.5 C49.356875 27.634375 49.08875 28.76875 48.8125 29.9375 C48.420625 31.113125 48.02875 32.28875 47.625 33.5 C43.89056924 34.74481025 41.49517914 34.09036631 37.625 33.5 C36.078125 33.5928125 36.078125 33.5928125 34.5 33.6875 C30.78149793 33.444989 29.28764054 32.00601462 26.625 29.5 C26.068125 30.180625 25.51125 30.86125 24.9375 31.5625 C24.174375 32.201875 23.41125 32.84125 22.625 33.5 C20.125 33.1875 20.125 33.1875 17.625 32.5 C17.04234375 32.65984375 16.4596875 32.8196875 15.859375 32.984375 C12.91499355 33.66384764 10.37544183 33.35602148 7.375 33.0625 C6.29734375 32.96066406 5.2196875 32.85882813 4.109375 32.75390625 C3.28953125 32.67011719 2.4696875 32.58632812 1.625 32.5 C1.295 31.51 0.965 30.52 0.625 29.5 C-0.04015625 28.97535156 -0.7053125 28.45070313 -1.390625 27.91015625 C-4.42061547 24.23003003 -4.04851425 20.57184103 -4.125 15.9375 C-4.16947266 14.64295898 -4.16947266 14.64295898 -4.21484375 13.32226562 C-4.6178767 0.97218457 -4.6178767 0.97218457 0 0 Z M33.625 16.5 C32.965 17.16 32.305 17.82 31.625 18.5 C31.94541397 21.10280568 31.94541397 21.10280568 32.625 23.5 C34.47225052 24.19159401 34.47225052 24.19159401 36.625 24.5 C37.615 23.84 38.605 23.18 39.625 22.5 C39.295 20.85 38.965 19.2 38.625 17.5 C36.22780568 16.82041397 36.22780568 16.82041397 33.625 16.5 Z " fill="#17B34F" transform="translate(363.375,64.5)"/>
<path d="M0 0 C3.375 1.6875 3.375 1.6875 4.375 3.6875 C5.30330112 9.87617414 2.2737914 14.44896983 -0.625 19.6875 C0.035 20.3475 0.695 21.0075 1.375 21.6875 C1.705 21.3575 2.035 21.0275 2.375 20.6875 C4.78640721 20.53288449 7.14950571 20.45579759 9.5625 20.4375 C10.87605469 20.41171875 12.18960938 20.3859375 13.54296875 20.359375 C19.07792686 20.83331637 22.04657004 22.18751783 25.734375 26.3515625 C27.77543456 30.50171694 27.83836292 33.52443488 27.625 38.0625 C27.60695313 38.79855469 27.58890625 39.53460938 27.5703125 40.29296875 C27.52359176 42.09171736 27.45186183 43.88978711 27.375 45.6875 C24.735 45.6875 22.095 45.6875 19.375 45.6875 C18.43551636 42.53876186 18.29755192 39.77702193 18.375 36.5 C18.412569 34.89627332 18.42173183 33.29098584 18.375 31.6875 C17.30854885 30.39116379 17.30854885 30.39116379 14.8125 30.625 C14.008125 30.645625 13.20375 30.66625 12.375 30.6875 C10.99273984 33.45202033 11.27974613 35.7336363 11.3125 38.8125 C11.32152344 39.90820312 11.33054687 41.00390625 11.33984375 42.1328125 C11.35144531 42.97585937 11.36304688 43.81890625 11.375 44.6875 C8.0889969 46.64609952 5.63251883 46.93408188 1.83203125 46.91796875 C0.75759766 46.91603516 -0.31683594 46.91410156 -1.42382812 46.91210938 C-2.54208984 46.89986328 -3.66035156 46.88761719 -4.8125 46.875 C-6.46088867 46.8740332 -6.46088867 46.8740332 -8.14257812 46.87304688 C-14.44614912 46.83921733 -20.29899605 46.39038933 -26.625 45.6875 C-26.625 38.0975 -26.625 30.5075 -26.625 22.6875 C-25.635 23.0175 -24.645 23.3475 -23.625 23.6875 C-23.625 30.2875 -23.625 36.8875 -23.625 43.6875 C-22.965 43.6875 -22.305 43.6875 -21.625 43.6875 C-21.625 42.6975 -21.625 41.7075 -21.625 40.6875 C-20.965 40.6875 -20.305 40.6875 -19.625 40.6875 C-18.93459426 39.03052621 -18.2719365 37.3619239 -17.625 35.6875 C-17.191875 34.759375 -17.191875 34.759375 -16.75 33.8125 C-16.57229071 30.79144205 -18.07404495 28.99255927 -19.6328125 26.50390625 C-21.00987613 23.98290393 -21.34853578 21.52125824 -21.625 18.6875 C-23.275 18.3575 -24.925 18.0275 -26.625 17.6875 C-26.625 17.0275 -26.625 16.3675 -26.625 15.6875 C-23.985 15.6875 -21.345 15.6875 -18.625 15.6875 C-18.625 18.9875 -18.625 22.2875 -18.625 25.6875 C-17.26881501 24.56215895 -17.26881501 24.56215895 -17.5625 21.625 C-17.583125 20.655625 -17.60375 19.68625 -17.625 18.6875 C-16.965 19.0175 -16.305 19.3475 -15.625 19.6875 C-14.25157169 19.7564472 -12.87497898 19.77217708 -11.5 19.75 C-9.581875 19.7190625 -9.581875 19.7190625 -7.625 19.6875 C-7.295 19.0275 -6.965 18.3675 -6.625 17.6875 C-8.08902711 12.85023814 -8.08902711 12.85023814 -11.625 9.6875 C-9.71849221 1.91481439 -9.71849221 1.91481439 -6.625 -0.3125 C-3.625 -1.3125 -3.625 -1.3125 0 0 Z M-4.625 3.6875 C-4.625 5.6675 -4.625 7.6475 -4.625 9.6875 C-3.305 9.6875 -1.985 9.6875 -0.625 9.6875 C-0.295 8.3675 0.035 7.0475 0.375 5.6875 C-2.1 4.6975 -2.1 4.6975 -4.625 3.6875 Z M-5.625 18.6875 C-4.625 20.6875 -4.625 20.6875 -4.625 20.6875 Z M-7.625 20.6875 C-7.80675781 21.38617188 -7.98851562 22.08484375 -8.17578125 22.8046875 C-8.42714844 23.71476562 -8.67851562 24.62484375 -8.9375 25.5625 C-9.18113281 26.46742187 -9.42476563 27.37234375 -9.67578125 28.3046875 C-10.625 30.6875 -10.625 30.6875 -13.625 32.6875 C-12.09791037 36.12345166 -10.02572955 38.80662454 -7.625 41.6875 C-6.51334768 37.2496439 -6.50972237 32.91793614 -6.5625 28.375 C-6.56701172 27.63443359 -6.57152344 26.89386719 -6.57617188 26.13085938 C-6.58787825 24.31637101 -6.60581102 22.50192466 -6.625 20.6875 C-6.955 20.6875 -7.285 20.6875 -7.625 20.6875 Z M-18.625 40.6875 C-18.625 41.3475 -18.625 42.0075 -18.625 42.6875 C-17.965 42.3575 -17.305 42.0275 -16.625 41.6875 C-17.285 41.3575 -17.945 41.0275 -18.625 40.6875 Z M-7.625 41.6875 C-6.625 43.6875 -6.625 43.6875 -6.625 43.6875 Z " fill="#114C6B" transform="translate(305.625,51.3125)"/>
<path d="M0 0 C1.05960938 0.00676758 1.05960938 0.00676758 2.140625 0.01367188 C3.88545275 0.02546125 5.630237 0.04339676 7.375 0.0625 C8.035 1.7125 8.695 3.3625 9.375 5.0625 C8.5809375 5.619375 7.786875 6.17625 6.96875 6.75 C1.16154546 10.69236505 1.16154546 10.69236505 -2.35546875 16.44140625 C-2.37239192 18.85221551 -2.37239192 18.85221551 -1.625 22.0625 C1.44881606 22.90922248 4.18835911 23.3737533 7.375 23.0625 C9.76933911 21.42866651 11.59387386 19.66456623 13.55078125 17.53125 C14.15277344 17.0465625 14.75476563 16.561875 15.375 16.0625 C17.60546875 16.34375 17.60546875 16.34375 19.375 17.0625 C19.9816952 29.48851651 19.9816952 29.48851651 16.375 35.0625 C11.10664864 39.61807441 6.27518585 42.23116582 -0.78125 41.98828125 C-5.6785021 41.62098734 -9.33092494 40.59490324 -13.625 38.0625 C-13.625 37.4025 -13.625 36.7425 -13.625 36.0625 C-14.615 35.7325 -15.605 35.4025 -16.625 35.0625 C-20.92362283 28.55315685 -21.52673691 22.76528878 -20.625 15.0625 C-19.06578347 10.77465454 -16.75549876 7.38865494 -13.625 4.0625 C-12.635 4.0625 -11.645 4.0625 -10.625 4.0625 C-10.295 3.0725 -9.965 2.0825 -9.625 1.0625 C-6.55966836 -0.47016582 -3.35745728 -0.04026471 0 0 Z " fill="#02BC42" transform="translate(98.625,67.9375)"/>
<path d="M0 0 C4.81819969 0.07692336 8.06636482 1.09712512 12.3125 3.3125 C12.22871094 3.92738281 12.14492188 4.54226562 12.05859375 5.17578125 C11.95675781 5.98402344 11.85492188 6.79226562 11.75 7.625 C11.64558594 8.42550781 11.54117187 9.22601563 11.43359375 10.05078125 C11.16494822 12.48067116 11.16494822 12.48067116 12.3125 15.3125 C12.9725 15.3125 13.6325 15.3125 14.3125 15.3125 C15.55636556 19.04409669 15.09061718 21.49265204 14.3125 25.3125 C13.6525 25.6425 12.9925 25.9725 12.3125 26.3125 C12.6425 27.6325 12.9725 28.9525 13.3125 30.3125 C9.28814107 33.20500798 5.27993599 34.62355387 0.3125 34.3125 C-3.40543677 33.06333238 -6.05693885 31.04476457 -8.625 28.0625 C-10.04116915 24.39712102 -10.36994154 21.15123366 -9.6875 17.3125 C-8.73140383 15.22502336 -7.63453095 13.2668369 -6.50390625 11.26953125 C-5.21868339 8.18868603 -6.05013949 5.49930254 -6.6875 2.3125 C-4.21750317 -0.15749683 -3.40535184 0.0156448 0 0 Z " fill="#165074" transform="translate(245.6875,31.6875)"/>
<path d="M0 0 C-0.3125 2.375 -0.3125 2.375 -1 5 C-1.99 5.66 -2.98 6.32 -4 7 C-5.20450304 9.55183404 -5.20450304 9.55183404 -6 12 C-6.61875 11.835 -7.2375 11.67 -7.875 11.5 C-9.96063386 10.92365356 -9.96063386 10.92365356 -12 11 C-11.34 12.98 -10.68 14.96 -10 17 C-11.32 17 -12.64 17 -14 17 C-14.33 17.66 -14.66 18.32 -15 19 C-16.32 18.34 -17.64 17.68 -19 17 C-19 16.01 -19 15.02 -19 14 C-20.65 13.67 -22.3 13.34 -24 13 C-24 13.66 -24 14.32 -24 15 C-26.31 15.33 -28.62 15.66 -31 16 C-30.8125 13.125 -30.8125 13.125 -30 10 C-27.4375 8.625 -27.4375 8.625 -25 8 C-25.66 7.34 -26.32 6.68 -27 6 C-28.11375 7.0209375 -28.11375 7.0209375 -29.25 8.0625 C-32 10 -32 10 -34.3125 9.75 C-34.869375 9.5025 -35.42625 9.255 -36 9 C-36 6 -36 6 -35 3 C-36.65 3.66 -38.3 4.32 -40 5 C-41 4 -41 4 -41.4375 1.1875 C-41 -2 -41 -2 -38.8125 -4.1875 C-25.39466147 -11.62085656 -11.65857426 -9.3087841 0 0 Z M-33 0 C-33 0.66 -33 1.32 -33 2 C-30.13275314 1.42655063 -29.1385485 1.1385485 -27 -1 C-24.3984375 -1.1953125 -24.3984375 -1.1953125 -21.375 -1.125 C-19.87066406 -1.09792969 -19.87066406 -1.09792969 -18.3359375 -1.0703125 C-17.56507813 -1.04710937 -16.79421875 -1.02390625 -16 -1 C-16 -1.66 -16 -2.32 -16 -3 C-17.89510699 -3.08160748 -19.79124504 -3.13946459 -21.6875 -3.1875 C-22.74324219 -3.22230469 -23.79898438 -3.25710937 -24.88671875 -3.29296875 C-28.38158604 -2.96409165 -30.22938553 -2.12293836 -33 0 Z M-12 -1 C-12 -0.01 -12 0.98 -12 2 C-11.34 2 -10.68 2 -10 2 C-10.33 1.01 -10.66 0.02 -11 -1 C-11.33 -1 -11.66 -1 -12 -1 Z M-8 2 C-8 2.99 -8 3.98 -8 5 C-7.01 5.33 -6.02 5.66 -5 6 C-5.66 4.68 -6.32 3.36 -7 2 C-7.33 2 -7.66 2 -8 2 Z M-18 6 C-18 6.66 -18 7.32 -18 8 C-16.68 8.33 -15.36 8.66 -14 9 C-13.67 8.34 -13.34 7.68 -13 7 C-14.65 6.67 -16.3 6.34 -18 6 Z " fill="#48B26D" transform="translate(160,14)"/>
<path d="M0 0 C0 0.66 0 1.32 0 2 C0.763125 2.226875 1.52625 2.45375 2.3125 2.6875 C5.71251182 4.34797089 6.55914733 5.51161986 8 9 C8.52774616 13.74971544 8.47536881 15.99221812 6.4375 20.3125 C3.47894749 23.57449379 1.21640873 24.76415606 -3 26 C-6.4375 25.6875 -6.4375 25.6875 -9 25 C-8.67 26.98 -8.34 28.96 -8 31 C-9.98 31 -11.96 31 -14 31 C-14 31.66 -14 32.32 -14 33 C-14.66 33 -15.32 33 -16 33 C-16 32.34 -16 31.68 -16 31 C-16.66 31 -17.32 31 -18 31 C-18.47324614 9.57246664 -18.47324614 9.57246664 -14.3125 3.5625 C-9.91482821 0.59110014 -5.24952005 -0.31815273 0 0 Z M-5 8 C-6.32 8.99 -7.64 9.98 -9 11 C-8.81171228 13.44480079 -8.81171228 13.44480079 -8 16 C-6.03241727 17.36020151 -6.03241727 17.36020151 -4 18 C-2.68 17.01 -1.36 16.02 0 15 C-0.18828772 12.55519921 -0.18828772 12.55519921 -1 10 C-2.96758273 8.63979849 -2.96758273 8.63979849 -5 8 Z " fill="#165077" transform="translate(227,40)"/>
<path d="M0 0 C1.175625 0.165 2.35125 0.33 3.5625 0.5 C7.48220873 1.05013456 10.92238739 1 15 1 C15 9.25 15 17.5 15 26 C11.9475 26.0825 8.895 26.165 5.75 26.25 C4.79448242 26.28641602 3.83896484 26.32283203 2.85449219 26.36035156 C-3.40392724 26.44245525 -3.40392724 26.44245525 -6.53125 24.12109375 C-10.05740733 19.02879739 -10.88462499 14.10391243 -10 8 C-8.375 5 -8.375 5 -6 3 C-2.75 2.1875 -2.75 2.1875 0 2 C0 1.34 0 0.68 0 0 Z M-1 11 C-1.33340471 13.95804573 -1.33340471 13.95804573 -1 17 C0.485 17.99 0.485 17.99 2 19 C3.65 17.35 5.3 15.7 7 14 C6.34 12.68 5.68 11.36 5 10 C1.71069596 9.63314303 1.71069596 9.63314303 -1 11 Z " fill="#14496B" transform="translate(344,71)"/>
<path d="M0 0 C1.05960938 0.00676758 1.05960938 0.00676758 2.140625 0.01367188 C3.88545275 0.02546125 5.630237 0.04339676 7.375 0.0625 C8.035 1.7125 8.695 3.3625 9.375 5.0625 C8.5809375 5.619375 7.786875 6.17625 6.96875 6.75 C1.16154546 10.69236505 1.16154546 10.69236505 -2.35546875 16.44140625 C-2.37239192 18.85221551 -2.37239192 18.85221551 -1.625 22.0625 C1.44881606 22.90922248 4.18835911 23.3737533 7.375 23.0625 C9.76933911 21.42866651 11.59387386 19.66456623 13.55078125 17.53125 C14.15277344 17.0465625 14.75476563 16.561875 15.375 16.0625 C17.60546875 16.34375 17.60546875 16.34375 19.375 17.0625 C19.9816952 29.48851651 19.9816952 29.48851651 16.375 35.0625 C11.10664864 39.61807441 6.27518585 42.23116582 -0.78125 41.98828125 C-5.6785021 41.62098734 -9.33092494 40.59490324 -13.625 38.0625 C-13.625 37.4025 -13.625 36.7425 -13.625 36.0625 C-14.615 35.7325 -15.605 35.4025 -16.625 35.0625 C-20.92362283 28.55315685 -21.52673691 22.76528878 -20.625 15.0625 C-19.06578347 10.77465454 -16.75549876 7.38865494 -13.625 4.0625 C-12.635 4.0625 -11.645 4.0625 -10.625 4.0625 C-10.295 3.0725 -9.965 2.0825 -9.625 1.0625 C-6.55966836 -0.47016582 -3.35745728 -0.04026471 0 0 Z M-13.3984375 7.44921875 C-14.92761494 9.12275771 -14.92761494 9.12275771 -14.625 12.0625 C-15.285 12.0625 -15.945 12.0625 -16.625 12.0625 C-18.13928813 19.44465464 -18.91216853 26.56109801 -15.08203125 33.328125 C-12.26931926 36.67623256 -8.80716641 38.05683809 -4.625 39.0625 C2.39403521 39.28532651 7.90555154 36.40349348 13.375 32.0625 C14.67121765 29.9800833 14.67121765 29.9800833 15.375 28.0625 C16.035 28.0625 16.695 28.0625 17.375 28.0625 C17.375 25.7525 17.375 23.4425 17.375 21.0625 C13.26358437 22.33165931 13.26358437 22.33165931 9.4375 24.25 C5.4379173 25.82559318 1.30962903 24.37404301 -2.625 23.0625 C-3.67476964 19.91319107 -3.72631595 17.67435544 -3.6875 14.375 C-3.67847656 13.38113281 -3.66945313 12.38726562 -3.66015625 11.36328125 C-3.64855469 10.60402344 -3.63695312 9.84476563 -3.625 9.0625 C-2.99078125 8.94003906 -2.3565625 8.81757812 -1.703125 8.69140625 C0.57216567 8.25553909 0.57216567 8.25553909 1.625 6 C1.8725 5.360625 2.12 4.72125 2.375 4.0625 C-2.76980182 3.7305773 -9.22814245 4.18830522 -13.3984375 7.44921875 Z " fill="#1F9966" transform="translate(98.625,67.9375)"/>
<path d="M0 0 C2.35125 -0.061875 4.7025 -0.12375 7.125 -0.1875 C7.85348145 -0.21481201 8.58196289 -0.24212402 9.33251953 -0.27026367 C14.02223362 -0.32940978 17.11705877 0.37653971 21 3 C25.18633493 7.72695434 25.53212181 11.37448616 25.25 17.375 C25.23195313 18.11105469 25.21390625 18.84710938 25.1953125 19.60546875 C25.14859176 21.40421736 25.07686183 23.20228711 25 25 C22.36 25 19.72 25 17 25 C16.06051636 21.85126186 15.92255192 19.08952193 16 15.8125 C16.037569 14.20877332 16.04673183 12.60348584 16 11 C14.93354885 9.70366379 14.93354885 9.70366379 12.4375 9.9375 C11.633125 9.958125 10.82875 9.97875 10 10 C8.61773984 12.76452033 8.90474613 15.0461363 8.9375 18.125 C8.95103516 19.76855469 8.95103516 19.76855469 8.96484375 21.4453125 C8.97644531 22.28835937 8.98804688 23.13140625 9 24 C5.28732913 26.33760758 4.80554252 25.9611085 0 25 C0 16.75 0 8.5 0 0 Z " fill="#174C6D" transform="translate(308,72)"/>
<path d="M0 0 C2.625 0.5 2.625 0.5 4.9375 2.9375 C6.625 5.5 6.625 5.5 6.625 6.5 C9.265 6.5 11.905 6.5 14.625 6.5 C16.21206842 10.6077065 16.72691901 12.09232396 15.625 16.5 C12.325 16.5 9.025 16.5 5.625 16.5 C5.295 18.48 4.965 20.46 4.625 22.5 C5.615 22.5 6.605 22.5 7.625 22.5 C7.625 23.16 7.625 23.82 7.625 24.5 C10.595 24.17 13.565 23.84 16.625 23.5 C15.965 23.83 15.305 24.16 14.625 24.5 C15.10984276 29.14586892 15.10984276 29.14586892 16.625 33.5 C11.675 33.17 6.725 32.84 1.625 32.5 C1.295 31.51 0.965 30.52 0.625 29.5 C-0.04015625 28.97535156 -0.7053125 28.45070313 -1.390625 27.91015625 C-4.42061547 24.23003003 -4.04851425 20.57184103 -4.125 15.9375 C-4.16947266 14.64295898 -4.16947266 14.64295898 -4.21484375 13.32226562 C-4.6178767 0.97218457 -4.6178767 0.97218457 0 0 Z " fill="#124F70" transform="translate(363.375,64.5)"/>
<path d="M0 0 C0 2.31 0 4.62 0 7 C-1.60875 7.2165625 -1.60875 7.2165625 -3.25 7.4375 C-5.92599819 7.83889973 -8.39881191 8.31517393 -11 9 C-10.98839844 9.90363281 -10.97679687 10.80726562 -10.96484375 11.73828125 C-10.95582031 12.91777344 -10.94679688 14.09726562 -10.9375 15.3125 C-10.92589844 16.48425781 -10.91429687 17.65601563 -10.90234375 18.86328125 C-11 22 -11 22 -12 25 C-14.875 25.125 -14.875 25.125 -18 25 C-20 23 -20 23 -20.265625 20.609375 C-20.22263757 12.74267599 -19.72442713 6.88798219 -14 1 C-9.47759901 -1.84265205 -5.02554503 -0.81021859 0 0 Z " fill="#1F4A65" transform="translate(281,41)"/>
<path d="M0 0 C-1.07401108 2.91517292 -1.77810176 4.77810176 -4 7 C-4.99 7 -5.98 7 -7 7 C-7.33 10.3 -7.66 13.6 -8 17 C-8.33 17 -8.66 17 -9 17 C-9.0270043 15.54176788 -9.04639787 14.08339325 -9.0625 12.625 C-9.07410156 11.81289062 -9.08570312 11.00078125 -9.09765625 10.1640625 C-9 8 -9 8 -8 6 C-6.66666667 5.33333333 -5.33333333 4.66666667 -4 4 C-3.67 3.34 -3.34 2.68 -3 2 C-10.27575478 2.46615381 -10.27575478 2.46615381 -17 5 C-18.34410262 7.01735205 -18.34410262 7.01735205 -19 9 C-19.66 9 -20.32 9 -21 9 C-21.0816082 11.37570543 -21.14077222 13.74855841 -21.1875 16.125 C-21.21263672 16.79015625 -21.23777344 17.4553125 -21.26367188 18.140625 C-21.33367072 22.90054658 -20.32155604 25.89310034 -18 30 C-18 30.66 -18 31.32 -18 32 C-16.88625 32.185625 -16.88625 32.185625 -15.75 32.375 C-13 33 -13 33 -11.1875 34.125 C-7.65160954 35.53935618 -4.54834629 35.05180963 -1 34 C3.8252012 31.61241896 8.32305643 28.97443092 12 25 C12 29 12 29 10.26953125 30.8515625 C3.54792811 35.70308528 -2.63855659 38 -11 38 C-13.79526124 37.34013505 -15.51697127 36.50136621 -18 35 C-18 34.34 -18 33.68 -18 33 C-18.99 32.67 -19.98 32.34 -21 32 C-25.29862283 25.49065685 -25.90173691 19.70278878 -25 12 C-23.75 8.5625 -23.75 8.5625 -22 6 C-21.4225 5.071875 -20.845 4.14375 -20.25 3.1875 C-15.22862092 -1.69439633 -6.61510738 -0.10765998 0 0 Z " fill="#13B451" transform="translate(103,71)"/>
<path d="M0 0 C0.99 0.33 1.98 0.66 3 1 C4.32 1 5.64 1 7 1 C7.33 7.93 7.66 14.86 8 22 C6.02 22 4.04 22 2 22 C1.87625 21.360625 1.7525 20.72125 1.625 20.0625 C1.41875 19.381875 1.2125 18.70125 1 18 C0.34 17.67 -0.32 17.34 -1 17 C-0.34 16.34 0.32 15.68 1 15 C0.69208308 13.328451 0.35613097 11.66194453 0 10 C0.33 8.68 0.66 7.36 1 6 C-1.97 6 -4.94 6 -8 6 C-8.268125 6.969375 -8.53625 7.93875 -8.8125 8.9375 C-9.204375 9.948125 -9.59625 10.95875 -10 12 C-10.99 12.33 -11.98 12.66 -13 13 C-13.33 13.66 -13.66 14.32 -14 15 C-14.33 13.68 -14.66 12.36 -15 11 C-15.33 11.66 -15.66 12.32 -16 13 C-16 11.35 -16 9.7 -16 8 C-14.35 7.67 -12.7 7.34 -11 7 C-10.566875 5.5459375 -10.566875 5.5459375 -10.125 4.0625 C-8.19719027 -1.18542649 -5.12441951 -0.17980419 0 0 Z " fill="#144F77" transform="translate(350,74)"/>
<path d="M0 0 C3.375 1.6875 3.375 1.6875 4.375 3.6875 C5.30330112 9.87617414 2.2737914 14.44896983 -0.625 19.6875 C-2.98828125 19.4375 -2.98828125 19.4375 -5.625 18.6875 C-6.91796875 16.875 -6.91796875 16.875 -7.8125 14.6875 C-8.97837846 11.52379282 -8.97837846 11.52379282 -11.625 9.6875 C-9.71849221 1.91481439 -9.71849221 1.91481439 -6.625 -0.3125 C-3.625 -1.3125 -3.625 -1.3125 0 0 Z M-4.625 3.6875 C-4.625 5.6675 -4.625 7.6475 -4.625 9.6875 C-3.305 9.6875 -1.985 9.6875 -0.625 9.6875 C-0.295 8.3675 0.035 7.0475 0.375 5.6875 C-2.1 4.6975 -2.1 4.6975 -4.625 3.6875 Z " fill="#D03652" transform="translate(305.625,51.3125)"/>
<path d="M0 0 C0.98120464 3.05263664 0.98120464 4.94736336 0 8 C0.99 8 1.98 8 3 8 C3 7.34 3 6.68 3 6 C3.66 6 4.32 6 5 6 C5.66 4.68 6.32 3.36 7 2 C8.65 2 10.3 2 12 2 C10 4 8 6 6 8 C5.67 9.010625 5.34 10.02125 5 11.0625 C4 14 4 14 2 15 C3.01707031 15.03867187 3.01707031 15.03867187 4.0546875 15.078125 C10.46082634 15.46852681 19.16766842 16.16766842 24 21 C25.93223995 21.12357078 27.86893799 21.17794458 29.80493164 21.20532227 C31.04614273 21.22526749 32.28735382 21.24521271 33.56617737 21.26576233 C34.9308357 21.28274793 36.29549537 21.29962669 37.66015625 21.31640625 C39.04878875 21.33696936 40.4374149 21.35796566 41.82603455 21.37937927 C45.48714059 21.43466647 49.14830373 21.48404626 52.80950928 21.53222656 C56.54297997 21.58239321 60.27636738 21.63810446 64.00976562 21.69335938 C71.3397733 21.80102218 78.66985005 21.90244894 86 22 C85.67 22.66 85.34 23.32 85 24 C53.32 23.505 53.32 23.505 21 23 C21 22.34 21 21.68 21 21 C20.01 21 19.02 21 18 21 C18 20.34 18 19.68 18 19 C17.01 19.33 16.02 19.66 15 20 C12.6953125 19.66015625 12.6953125 19.66015625 10.125 19.0625 C6.65811266 18.2620413 3.56146665 17.89149654 0 18 C-0.66 15.69 -1.32 13.38 -2 11 C-2.99 11 -3.98 11 -5 11 C-4.46884894 6.48521602 -2.63379708 3.65333143 0 0 Z " fill="#1A4C69" transform="translate(93,40)"/>
<path d="M0 0 C-0.33 0.99 -0.66 1.98 -1 3 C-3.97 2.505 -3.97 2.505 -7 2 C-7.433125 2.928125 -7.433125 2.928125 -7.875 3.875 C-9 6 -9 6 -11 8 C-11 9.32 -11 10.64 -11 12 C-9.68 10.68 -8.36 9.36 -7 8 C-6.34 8.33 -5.68 8.66 -5 9 C-5.66 9.66 -6.32 10.32 -7 11 C-6.979375 11.78375 -6.95875 12.5675 -6.9375 13.375 C-7.01306693 16.54881118 -7.930512 17.671826 -10 20 C-10 19.01 -10 18.02 -10 17 C-10.66 17 -11.32 17 -12 17 C-11.855625 18.258125 -11.71125 19.51625 -11.5625 20.8125 C-11.44068359 21.87404297 -11.44068359 21.87404297 -11.31640625 22.95703125 C-10.74526677 26.64475903 -9.7051155 28.53011193 -7 31 C-8.98 31 -10.96 31 -13 31 C-13 31.66 -13 32.32 -13 33 C-13.66 33 -14.32 33 -15 33 C-15 32.34 -15 31.68 -15 31 C-15.66 31 -16.32 31 -17 31 C-17.47324614 9.57246664 -17.47324614 9.57246664 -13.3125 3.5625 C-9.09173036 0.71062862 -5.030285 0 0 0 Z " fill="#1A4A6D" transform="translate(226,40)"/>
<path d="M0 0 C-0.99 1.98 -1.98 3.96 -3 6 C-3.61875 5.835 -4.2375 5.67 -4.875 5.5 C-6.96063386 4.92365356 -6.96063386 4.92365356 -9 5 C-8.34 6.98 -7.68 8.96 -7 11 C-8.32 11 -9.64 11 -11 11 C-11.33 11.66 -11.66 12.32 -12 13 C-13.32 12.34 -14.64 11.68 -16 11 C-16 10.01 -16 9.02 -16 8 C-17.65 7.67 -19.3 7.34 -21 7 C-21 7.66 -21 8.32 -21 9 C-23.31 9.33 -25.62 9.66 -28 10 C-27.8125 7.125 -27.8125 7.125 -27 4 C-24.4375 2.625 -24.4375 2.625 -22 2 C-22.33 1.34 -22.66 0.68 -23 0 C-20.36 0 -17.72 0 -15 0 C-15 0.66 -15 1.32 -15 2 C-12.83125748 1.49396008 -11.00032373 1.00016187 -9 0 C-2.36842105 -1.18421053 -2.36842105 -1.18421053 0 0 Z " fill="#4FB976" transform="translate(157,20)"/>
<path d="M0 0 C2.31 0.66 4.62 1.32 7 2 C7.1953125 4.05078125 7.390625 6.1015625 7.5859375 8.15234375 C7.72257812 8.76207031 7.85921875 9.37179688 8 10 C8.66 10.33 9.32 10.66 10 11 C10 11.99 10 12.98 10 14 C10.66 14.33 11.32 14.66 12 15 C11.34 17.31 10.68 19.62 10 22 C9.34 22 8.68 22 8 22 C8 22.66 8 23.32 8 24 C7.34 24 6.68 24 6 24 C6 24.99 6 25.98 6 27 C5.01 27.33 4.02 27.66 3 28 C3 21.07 3 14.14 3 7 C2.34 6.67 1.68 6.34 1 6 C0.375 2.9375 0.375 2.9375 0 0 Z " fill="#114F77" transform="translate(278,68)"/>
<path d="M0 0 C1.175625 0.165 2.35125 0.33 3.5625 0.5 C7.48220873 1.05013456 10.92238739 1 15 1 C15 9.25 15 17.5 15 26 C9.39 26 3.78 26 -2 26 C1.25995586 23.82669609 2.22979966 23.75078541 6 23.8125 C6.86625 23.81894531 7.7325 23.82539062 8.625 23.83203125 C11 24 11 24 14 25 C13.75443359 23.75863281 13.75443359 23.75863281 13.50390625 22.4921875 C12.9535453 18.67805811 12.88910945 14.96646499 12.9375 11.125 C12.94201172 10.43664062 12.94652344 9.74828125 12.95117188 9.0390625 C12.96283664 7.35933665 12.98076729 5.67965625 13 4 C12.05253906 4.1753125 11.10507812 4.350625 10.12890625 4.53125 C7.11610911 4.98260538 5.8356707 4.73178599 3 4 C0.40882687 4.00156224 0.40882687 4.00156224 -2 5 C-3.03013277 6.64821244 -4.03114628 8.31503702 -5 10 C-7.1875 10.8125 -7.1875 10.8125 -9 11 C-9.33 10.01 -9.66 9.02 -10 8 C-8.4375 5.375 -8.4375 5.375 -6 3 C-2.75 2.1875 -2.75 2.1875 0 2 C0 1.34 0 0.68 0 0 Z " fill="#214B65" transform="translate(344,71)"/>
<path d="M0 0 C2.37967918 0.52093951 2.37967918 0.52093951 4.6875 -0.6875 C8.17507872 -2.01610142 10.7063546 -1.39458733 14.3125 -0.6875 C14.3125 0.3025 14.3125 1.2925 14.3125 2.3125 C11.3425 1.8175 11.3425 1.8175 8.3125 1.3125 C7.9825 1.9725 7.6525 2.6325 7.3125 3.3125 C1.86322464 4.58786232 1.86322464 4.58786232 -0.6875 3.3125 C-0.666875 4.611875 -0.64625 5.91125 -0.625 7.25 C-0.60350546 8.60415633 -0.61601801 9.96006083 -0.6875 11.3125 C-1.0175 11.6425 -1.3475 11.9725 -1.6875 12.3125 C-1.91942865 13.82719448 -2.09965238 15.35004562 -2.25 16.875 C-2.33378906 17.70128906 -2.41757813 18.52757813 -2.50390625 19.37890625 C-2.56449219 20.01699219 -2.62507812 20.65507813 -2.6875 21.3125 C-0.27104218 21.47937448 -0.27104218 21.47937448 2.3125 21.3125 C2.9725 20.6525 3.6325 19.9925 4.3125 19.3125 C4.3125 20.6325 4.3125 21.9525 4.3125 23.3125 C1.6725 23.3125 -0.9675 23.3125 -3.6875 23.3125 C-4.0175 18.6925 -4.3475 14.0725 -4.6875 9.3125 C-6.6675 8.6525 -8.6475 7.9925 -10.6875 7.3125 C-9.5625 5.8125 -9.5625 5.8125 -7.6875 4.3125 C-4.5 4.125 -4.5 4.125 -1.6875 4.3125 C-1.6875 3.6525 -1.6875 2.9925 -1.6875 2.3125 C-5.9775 1.9825 -10.2675 1.6525 -14.6875 1.3125 C-12.12302926 -3.81644148 -4.57382065 -1.17004714 0 0 Z " fill="#254F68" transform="translate(230.6875,73.6875)"/>
<path d="M0 0 C1.32 0.33 2.64 0.66 4 1 C4.06058594 1.75925781 4.12117188 2.51851563 4.18359375 3.30078125 C4.26738281 4.29464844 4.35117187 5.28851563 4.4375 6.3125 C4.51871094 7.29863281 4.59992188 8.28476563 4.68359375 9.30078125 C4.91812559 12.09375599 4.91812559 12.09375599 6 15 C8.97 15.33 11.94 15.66 15 16 C15 17.65 15 19.3 15 21 C13.04196493 21.05389087 11.08351091 21.09274217 9.125 21.125 C8.03445313 21.14820312 6.94390625 21.17140625 5.8203125 21.1953125 C3 21 3 21 1 19 C0.95936168 17.33382885 0.957279 15.66611905 1 14 C0.67 13.67 0.34 13.34 0 13 C-0.07258946 10.81360547 -0.08373783 8.62499611 -0.0625 6.4375 C-0.05347656 5.23996094 -0.04445313 4.04242188 -0.03515625 2.80859375 C-0.02355469 1.88175781 -0.01195312 0.95492187 0 0 Z " fill="#0FB64A" transform="translate(415,75)"/>
<path d="M0 0 C2.47923801 -0.02685095 4.9581884 -0.04676547 7.4375 -0.0625 C8.14455078 -0.07087891 8.85160156 -0.07925781 9.58007812 -0.08789062 C11.38693559 -0.09653588 13.19387603 -0.05220011 15 0 C16.85685405 1.85685405 16.34677463 4.93937929 16.5 7.4375 C16.64147326 11.87784331 16.64147326 11.87784331 18 16 C20.34907875 16.68931344 20.34907875 16.68931344 23.0625 17.125 C23.98160156 17.29257813 24.90070313 17.46015625 25.84765625 17.6328125 C26.55792969 17.75398438 27.26820313 17.87515625 28 18 C28 19.98 28 21.96 28 24 C24.6853333 26.02907167 22.5684021 26.12742133 18.75 25.625 C17.85796875 25.51414062 16.9659375 25.40328125 16.046875 25.2890625 C15.37140625 25.19367188 14.6959375 25.09828125 14 25 C14 24.67 14 24.34 14 24 C17.63 24 21.26 24 25 24 C24.67 22.68 24.34 21.36 24 20 C22.72125 19.731875 21.4425 19.46375 20.125 19.1875 C16.50324145 18.42809901 16.19948132 18.29922197 14 15 C13.5859375 12.30078125 13.5859375 12.30078125 13.375 9.3125 C13.26285156 7.82169922 13.26285156 7.82169922 13.1484375 6.30078125 C13.09945313 5.54152344 13.05046875 4.78226562 13 4 C12.01 3.67 11.02 3.34 10 3 C9.67 3.99 9.34 4.98 9 6 C8.34 6 7.68 6 7 6 C7 5.34 7 4.68 7 4 C4.69 3.34 2.38 2.68 0 2 C0 1.34 0 0.68 0 0 Z " fill="#32AE5F" transform="translate(405,72)"/>
<path d="M0 0 C4.73583298 3.88581167 4.73583298 3.88581167 5.484375 7.04296875 C5.67231578 9.02718969 5.83717706 11.01356017 6 13 C6.66 13.66 7.32 14.32 8 15 C8.33 15.33 8.66 15.66 9 16 C9.66 14.35 10.32 12.7 11 11 C11.66 11.33 12.32 11.66 13 12 C12.125 19.875 12.125 19.875 11 21 C8.32941149 21.14115161 5.67567762 21.04247107 3 21 C2.93941406 20.00097656 2.87882813 19.00195312 2.81640625 17.97265625 C2.69072266 16.03712891 2.69072266 16.03712891 2.5625 14.0625 C2.48128906 12.77472656 2.40007812 11.48695312 2.31640625 10.16015625 C2.35080812 7.13976043 2.35080812 7.13976043 1 6 C-0.66617115 5.95936168 -2.33388095 5.957279 -4 6 C-5.14814997 8.29629994 -5.30769809 10.07698086 -5.5625 12.625 C-5.64628906 13.44226563 -5.73007813 14.25953125 -5.81640625 15.1015625 C-5.87699219 15.72804688 -5.93757812 16.35453125 -6 17 C-6.33 17 -6.66 17 -7 17 C-7.027193 15.41676312 -7.04648306 13.83338938 -7.0625 12.25 C-7.07410156 11.36828125 -7.08570313 10.4865625 -7.09765625 9.578125 C-7.00676146 7.17850261 -6.83971741 5.24762684 -6 3 C-3.5 1.8125 -3.5 1.8125 -1 1 C-0.67 0.67 -0.34 0.34 0 0 Z " fill="#1F4D6B" transform="translate(241,76)"/>
<path d="M0 0 C-0.66 0.66 -1.32 1.32 -2 2 C-1.01 2.99 -0.02 3.98 1 5 C0.443125 5.07476563 -0.11375 5.14953125 -0.6875 5.2265625 C-6.42354709 6.21486791 -9.9024035 8.01507468 -14.2734375 11.85546875 C-15.12808594 12.42201172 -15.12808594 12.42201172 -16 13 C-16.99 12.67 -17.98 12.34 -19 12 C-19.375 9.25 -19.375 9.25 -19 6 C-13.74997939 1.27498145 -6.97389494 -0.43586843 0 0 Z " fill="#4CAD68" transform="translate(138,6)"/>
<path d="M0 0 C2.64 0.99 5.28 1.98 8 3 C8.33 10.92 8.66 18.84 9 27 C6.03 27 3.06 27 0 27 C1.65 25.68 3.3 24.36 5 23 C4.82597656 22.31550781 4.65195312 21.63101563 4.47265625 20.92578125 C3.92653455 17.54524278 4.12777331 14.59449357 4.4375 11.1875 C4.53933594 10.02605469 4.64117187 8.86460938 4.74609375 7.66796875 C4.82988281 6.78753906 4.91367187 5.90710938 5 5 C4.01 5 3.02 5 2 5 C1.67 6.32 1.34 7.64 1 9 C0.67 9 0.34 9 0 9 C-0.87890625 2.84765625 -0.87890625 2.84765625 -1 1 C-0.67 0.67 -0.34 0.34 0 0 Z " fill="#1D4A65" transform="translate(299,70)"/>
<path d="M0 0 C-1.07401108 2.91517292 -1.77810176 4.77810176 -4 7 C-4.99 7 -5.98 7 -7 7 C-7.33 10.3 -7.66 13.6 -8 17 C-8.33 17 -8.66 17 -9 17 C-9.0270043 15.54176788 -9.04639787 14.08339325 -9.0625 12.625 C-9.07410156 11.81289062 -9.08570312 11.00078125 -9.09765625 10.1640625 C-9 8 -9 8 -8 6 C-6.66666667 5.33333333 -5.33333333 4.66666667 -4 4 C-3.67 3.34 -3.34 2.68 -3 2 C-10.27575478 2.46615381 -10.27575478 2.46615381 -17 5 C-18.34410262 7.01735205 -18.34410262 7.01735205 -19 9 C-19.66 9 -20.32 9 -21 9 C-21.02705308 11.41674224 -21.04686438 13.8331794 -21.0625 16.25 C-21.07087891 16.93191406 -21.07925781 17.61382812 -21.08789062 18.31640625 C-21.10428392 21.69342554 -21.05628768 24.77291639 -20 28 C-22.2477975 25.94766315 -23.0022242 24.99332739 -24 22 C-24.44150418 8.75487465 -24.44150418 8.75487465 -21.5625 5.25 C-20.7890625 4.63125 -20.7890625 4.63125 -20 4 C-19.34 3.01 -18.68 2.02 -18 1 C-12.08249349 -0.38494833 -6.04780042 -0.09842713 0 0 Z " fill="#12B34C" transform="translate(103,71)"/>
<path d="M0 0 C0.99 0 1.98 0 3 0 C3 1.32 3 2.64 3 4 C3.66 4 4.32 4 5 4 C5.125 9.75 5.125 9.75 4 12 C4.66 12 5.32 12 6 12 C5.67 12.99 5.34 13.98 5 15 C2.23776722 12.23776722 2.42143709 9.79293383 2 6 C0.33445068 6.0611499 0.33445068 6.0611499 -1.36474609 6.12353516 C-5.475597 6.27175469 -9.58679746 6.40649089 -13.69824219 6.53710938 C-15.4792918 6.59558966 -17.26022447 6.65775006 -19.04101562 6.72363281 C-21.59743968 6.81757713 -24.15398912 6.89837558 -26.7109375 6.9765625 C-27.90944839 7.02485703 -27.90944839 7.02485703 -29.13217163 7.0741272 C-31.08754535 7.12738475 -33.04526241 7.07296352 -35 7 C-35.66 6.34 -36.32 5.68 -37 5 C-32.48631748 4.12217076 -28.22780021 3.8833562 -23.6328125 3.90234375 C-22.95322479 3.9037587 -22.27363708 3.90517365 -21.57345581 3.90663147 C-19.42392388 3.91218482 -17.27449992 3.92472831 -15.125 3.9375 C-13.65885568 3.94252104 -12.19270971 3.94708289 -10.7265625 3.95117188 C-7.15100717 3.96213889 -3.57551414 3.97937081 0 4 C-0.495 2.515 -0.495 2.515 -1 1 C-0.67 0.67 -0.34 0.34 0 0 Z " fill="#214C6A" transform="translate(165,97)"/>
<path d="M0 0 C0.99 0 1.98 0 3 0 C3 5.94 3 11.88 3 18 C3.66 18.33 4.32 18.66 5 19 C2.69 19.99 0.38 20.98 -2 22 C-3.24165475 18.26570001 -2.96385935 14.89377948 -2.6875 11 C-2.60886719 9.783125 -2.53023438 8.56625 -2.44921875 7.3125 C-2.04730449 4.34881916 -1.54197973 2.51751792 0 0 Z " fill="#0B5267" transform="translate(301,75)"/>
<path d="M0 0 C1.60546875 1.75 1.60546875 1.75 3.1875 4 C3.71730469 4.7425 4.24710937 5.485 4.79296875 6.25 C5.19128906 6.8275 5.58960938 7.405 6 8 C2.125 7.125 2.125 7.125 1 6 C0.484375 6.680625 -0.03125 7.36125 -0.5625 8.0625 C-3 10 -3 10 -6.6875 9.8125 C-10 9 -10 9 -11 8 C-11.04092937 5.66702567 -11.04241723 3.33294775 -11 1 C-3.375 0 -3.375 0 0 0 Z " fill="#2E9966" transform="translate(389,88)"/>
<path d="M0 0 C0 0.66 0 1.32 0 2 C0.66 2 1.32 2 2 2 C3.4375 3.6796875 3.4375 3.6796875 5 5.875 C6.59356457 8.09802257 8.06234725 10.06234725 10 12 C9.625 14.125 9.625 14.125 9 16 C8.443125 15.071875 7.88625 14.14375 7.3125 13.1875 C5.0204738 10.02822065 3.43264729 8.71632365 0 7 C-0.66 6.67 -1.32 6.34 -2 6 C-2 5.34 -2 4.68 -2 4 C-2.99 4.495 -2.99 4.495 -4 5 C-7.28339531 4.99114988 -10.55506365 4.86809011 -13.8359375 4.7421875 C-17.26461945 5.02156159 -18.53453979 5.68028128 -21 8 C-21.33 7.01 -21.66 6.02 -22 5 C-20.68 4.67 -19.36 4.34 -18 4 C-18 3.34 -18 2.68 -18 2 C-17.16855469 1.93941406 -16.33710937 1.87882812 -15.48046875 1.81640625 C-13.85044922 1.69072266 -13.85044922 1.69072266 -12.1875 1.5625 C-11.10855469 1.48128906 -10.02960938 1.40007812 -8.91796875 1.31640625 C-5.75810561 0.97377049 -3.1932719 0 0 0 Z " fill="#1F5F68" transform="translate(108,64)"/>
<path d="M0 0 C1.05960938 0.00676758 1.05960938 0.00676758 2.140625 0.01367188 C3.88545275 0.02546125 5.630237 0.04339676 7.375 0.0625 C8.035 1.7125 8.695 3.3625 9.375 5.0625 C8.5809375 5.63097656 7.786875 6.19945313 6.96875 6.78515625 C5.9478125 7.55730469 4.926875 8.32945313 3.875 9.125 C2.8540625 9.87910156 1.833125 10.63320312 0.78125 11.41015625 C-1.99958766 13.94008819 -1.99958766 13.94008819 -1.96875 17.87109375 C-1.8553125 18.92425781 -1.741875 19.97742188 -1.625 21.0625 C-2.285 20.7325 -2.945 20.4025 -3.625 20.0625 C-3.75 12.3125 -3.75 12.3125 -2.625 10.0625 C-2.00625 9.794375 -1.3875 9.52625 -0.75 9.25 C2.01460969 7.93632099 2.01460969 7.93632099 4.375 3.0625 C-0.575 3.3925 -5.525 3.7225 -10.625 4.0625 C-10.295 3.0725 -9.965 2.0825 -9.625 1.0625 C-6.55966836 -0.47016582 -3.35745728 -0.04026471 0 0 Z " fill="#34A962" transform="translate(98.625,67.9375)"/>
<path d="M0 0 C1.66510666 -0.11019088 3.33245759 -0.18656089 5 -0.25 C6.3921875 -0.31960937 6.3921875 -0.31960937 7.8125 -0.390625 C11 0 11 0 14.30273438 1.98632812 C20.33268674 5.07327759 26.71166944 4.60317793 33.34375 4.609375 C34.72239096 4.62437863 36.1010141 4.64111032 37.47961426 4.65948486 C41.08313891 4.70292686 44.68642121 4.72310537 48.29016113 4.73822021 C51.97743932 4.75787565 55.66445893 4.7998357 59.3515625 4.83984375 C66.56763842 4.91489439 73.78360495 4.9653371 81 5 C80.67 5.66 80.34 6.32 80 7 C48.32 6.505 48.32 6.505 16 6 C16 5.34 16 4.68 16 4 C15.01 4 14.02 4 13 4 C13 3.34 13 2.68 13 2 C12.01 2.33 11.02 2.66 10 3 C7.51953125 2.66015625 7.51953125 2.66015625 4.8125 2.0625 C3.91144531 1.86785156 3.01039062 1.67320313 2.08203125 1.47265625 C1.39496094 1.31667969 0.70789063 1.16070312 0 1 C0 0.67 0 0.34 0 0 Z " fill="#274F67" transform="translate(98,57)"/>
<path d="M0 0 C1.33333333 2.66666667 2.66666667 5.33333333 4 8 C5.43655854 8.08131463 6.8744483 8.13933559 8.3125 8.1875 C9.11300781 8.22230469 9.91351563 8.25710937 10.73828125 8.29296875 C13.47851584 7.93801608 14.29171079 7.10633718 16 5 C16.66 6.65 17.32 8.3 18 10 C12.69946031 11.80443904 7.6086815 12.90951592 2 12 C-0.5625 10.125 -0.5625 10.125 -2 8 C-2 7.34 -2 6.68 -2 6 C-2.99 5.67 -3.98 5.34 -5 5 C-4.34 5 -3.68 5 -3 5 C-3 4.34 -3 3.68 -3 3 C-2.34 3 -1.68 3 -1 3 C-0.67 2.01 -0.34 1.02 0 0 Z " fill="#08B946" transform="translate(391,82)"/>
<path d="M0 0 C2 1.75 2 1.75 4 4 C4 5.32 4 6.64 4 8 C1.10765685 8.82638376 -0.88742431 9 -4 9 C-7.72095505 9.45377501 -9.59024107 10.0829234 -12 13 C-12.55447997 9.22953618 -11.98118117 7.97066476 -9.875 4.6875 C-7 2 -7 2 -3.6875 1.625 C-2.800625 1.74875 -1.91375 1.8725 -1 2 C-0.67 1.34 -0.34 0.68 0 0 Z " fill="#104F76" transform="translate(226,40)"/>
<path d="M0 0 C1.93681161 -0.08107583 3.8745934 -0.13922475 5.8125 -0.1875 C6.89144531 -0.22230469 7.97039062 -0.25710937 9.08203125 -0.29296875 C12 0 12 0 13.90625 1.28125 C15.73473366 4.15458146 14.66102502 6.81506126 14 10 C12.54494642 10.52992692 11.08581873 11.0486789 9.625 11.5625 C8.40683594 11.99755859 8.40683594 11.99755859 7.1640625 12.44140625 C5 13 5 13 3 12 C3 11.34 3 10.68 3 10 C4.32 10 5.64 10 7 10 C7.28875 9.360625 7.5775 8.72125 7.875 8.0625 C9 6 9 6 11 5 C11 4.34 11 3.68 11 3 C7.04 2.67 3.08 2.34 -1 2 C-0.67 1.34 -0.34 0.68 0 0 Z " fill="#1F4F6A" transform="translate(189,53)"/>
<path d="M0 0 C0.33 0 0.66 0 1 0 C1.22786458 1.98567708 1.45572917 3.97135417 1.68359375 5.95703125 C1.97170735 8.19396393 1.97170735 8.19396393 3 11 C3 11.99 3 12.98 3 14 C2.34 14 1.68 14 1 14 C0.34 13.01 -0.32 12.02 -1 11 C-1.268125 12.134375 -1.53625 13.26875 -1.8125 14.4375 C-2.204375 15.613125 -2.59625 16.78875 -3 18 C-6.09478879 19.03159626 -7.52631393 18.97482862 -10.6875 18.5625 C-11.49574219 18.46066406 -12.30398438 18.35882813 -13.13671875 18.25390625 C-14.05904297 18.12822266 -14.05904297 18.12822266 -15 18 C-15 17.34 -15 16.68 -15 16 C-10.545 15.505 -10.545 15.505 -6 15 C-5.45627049 11.94152152 -5 9.11227195 -5 6 C-3.68 6 -2.36 6 -1 6 C-0.67 4.02 -0.34 2.04 0 0 Z " fill="#2AAD5A" transform="translate(414,80)"/>
<path d="M0 0 C-0.99 1.98 -1.98 3.96 -3 6 C-3.61875 5.835 -4.2375 5.67 -4.875 5.5 C-6.96063386 4.92365356 -6.96063386 4.92365356 -9 5 C-8.34 6.98 -7.68 8.96 -7 11 C-8.32 11 -9.64 11 -11 11 C-11.33 11.66 -11.66 12.32 -12 13 C-12.66 12.67 -13.32 12.34 -14 12 C-14.625 8.9375 -14.625 8.9375 -15 6 C-14.34 6 -13.68 6 -13 6 C-12.34 4.02 -11.68 2.04 -11 0 C-9.54263913 -0.19491452 -8.08405407 -0.38069358 -6.625 -0.5625 C-5.81289062 -0.66691406 -5.00078125 -0.77132813 -4.1640625 -0.87890625 C-2 -1 -2 -1 0 0 Z " fill="#51B784" transform="translate(157,20)"/>
<path d="M0 0 C2.125 1.9375 2.125 1.9375 4 4 C8.88312345 6.11062715 13.16757343 6.2474169 18.375 6.125 C19.11105469 6.11597656 19.84710938 6.10695313 20.60546875 6.09765625 C22.4037888 6.07430144 24.20193911 6.03843836 26 6 C20.74103659 9.50597561 14.1190908 8.51762702 8 8 C4.43743518 7.02797459 1.29539395 5.64170535 -2 4 C-3.66178021 3.3212447 -5.32733106 2.65146054 -7 2 C-9.31 3.98 -11.62 5.96 -14 8 C-14.66 7.67 -15.32 7.34 -16 7 C-15.0409375 6.1028125 -15.0409375 6.1028125 -14.0625 5.1875 C-11.79689611 3.09189663 -11.79689611 3.09189663 -11 0 C-7.17014518 -1.27661827 -3.85026619 -1.03510211 0 0 Z " fill="#1C4D68" transform="translate(83,114)"/>
<path d="M0 0 C3.05665662 0.90873575 4.72305703 1.67530825 6.8125 4.125 C8.45359749 8.09818339 8.41556948 10.70578201 8 15 C7.01 15.99 6.02 16.98 5 18 C5 14.7 5 11.4 5 8 C4.34 7.67 3.68 7.34 3 7 C2.67 9.64 2.34 12.28 2 15 C0.68 14.67 -0.64 14.34 -2 14 C-1.773125 13.236875 -1.54625 12.47375 -1.3125 11.6875 C-1.209375 10.800625 -1.10625 9.91375 -1 9 C-2.33378575 7.1645201 -2.33378575 7.1645201 -4 6 C-3.01 5.67 -2.02 5.34 -1 5 C-1 5.66 -1 6.32 -1 7 C0.32 6.67 1.64 6.34 3 6 C3 4.68 3 3.36 3 2 C2.01 1.67 1.02 1.34 0 1 C0 0.67 0 0.34 0 0 Z " fill="#1C4869" transform="translate(227,42)"/>
<path d="M0 0 C0.33 0 0.66 0 1 0 C0.85479535 1.6250563 0.70879131 3.25004117 0.5625 4.875 C0.43101563 6.38126953 0.43101563 6.38126953 0.296875 7.91796875 C0.11166261 9.84076579 -0.10224418 11.76127457 -0.359375 13.67578125 C-0.91737633 17.94714861 -1.1118192 21.32213361 0.0625 25.5 C0.371875 26.655 0.68125 27.81 1 29 C0.34 29.66 -0.32 30.32 -1 31 C-4.63201506 23.281968 -5.54046977 15.22159235 -3.09765625 6.94140625 C-2.15257367 4.57029158 -1.15141448 2.27712775 0 0 Z " fill="#204F6B" transform="translate(69,72)"/>
<path d="M0 0 C0 0.66 0 1.32 0 2 C-2.31 2.66 -4.62 3.32 -7 4 C-7 5.98 -7 7.96 -7 10 C-3.98509443 11.00496852 -1.95818308 11.10335303 1.1875 11.0625 C2.08855469 11.05347656 2.98960937 11.04445313 3.91796875 11.03515625 C4.94857422 11.01775391 4.94857422 11.01775391 6 11 C6.66 8.69 7.32 6.38 8 4 C8.33 4 8.66 4 9 4 C9 6.97 9 9.94 9 13 C5.59627622 13.85093095 2.96409501 14.19289953 -0.5 14.25 C-1.90765625 14.28867188 -1.90765625 14.28867188 -3.34375 14.328125 C-6.49222178 13.93919613 -7.82510812 13.30163383 -10 11 C-10.42578125 8.7734375 -10.42578125 8.7734375 -10.3125 6.375 C-10.28800781 5.57835938 -10.26351562 4.78171875 -10.23828125 3.9609375 C-10 2 -10 2 -9 1 C-2.88888889 0 -2.88888889 0 0 0 Z " fill="#204764" transform="translate(172,78)"/>
<path d="M0 0 C1.65 0 3.3 0 5 0 C5 1.98 5 3.96 5 6 C3.68 6 2.36 6 1 6 C1 7.32 1 8.64 1 10 C-1.31 10 -3.62 10 -6 10 C-6 8.35 -6 6.7 -6 5 C-5.38125 4.9175 -4.7625 4.835 -4.125 4.75 C-1.81562433 4.18741541 -1.81562433 4.18741541 -0.75 1.9375 C-0.5025 1.298125 -0.255 0.65875 0 0 Z " fill="#165176" transform="translate(269,44)"/>
<path d="M0 0 C0.66 0 1.32 0 2 0 C2.25 2.3125 2.25 2.3125 2 5 C-0.04424538 6.97610386 -1.1176825 8 -4 8 C-4 6.68 -4 5.36 -4 4 C-4.845625 4.185625 -5.69125 4.37125 -6.5625 4.5625 C-10.2773282 5.03529632 -13.32974273 4.66064631 -17 4 C-15.20113073 1.69064081 -14.36443253 1.04610291 -11.40625 0.671875 C-9.96765625 0.71054687 -9.96765625 0.71054687 -8.5 0.75 C-7.5409375 0.76546875 -6.581875 0.7809375 -5.59375 0.796875 C-3 1 -3 1 0 2 C0 1.34 0 0.68 0 0 Z M-2 3 C-1 6 -1 6 -1 6 Z " fill="#194767" transform="translate(87,52)"/>
<path d="M0 0 C1.125 7.625 1.125 7.625 0 11 C-2.875 11.125 -2.875 11.125 -6 11 C-8 9 -8 9 -8.125 6.375 C-8.08375 5.59125 -8.0425 4.8075 -8 4 C-7.1028125 3.566875 -7.1028125 3.566875 -6.1875 3.125 C-0.11111111 0 -0.11111111 0 0 0 Z " fill="#205270" transform="translate(269,55)"/>
<path d="M0 0 C0 3 0 3 -1.5625 5 C-7.57750724 9.93539056 -12.74652499 10.34070958 -20.328125 10.3984375 C-23.30483111 9.95454273 -24.19195475 9.34055172 -26 7 C-24.57107422 7.03480469 -24.57107422 7.03480469 -23.11328125 7.0703125 C-21.85902344 7.08835937 -20.60476562 7.10640625 -19.3125 7.125 C-18.07113281 7.14820312 -16.82976562 7.17140625 -15.55078125 7.1953125 C-10.49664833 6.91730739 -7.19545676 5.36132072 -3.1875 2.375 C-2.135625 1.59125 -1.08375 0.8075 0 0 Z " fill="#166B6D" transform="translate(115,102)"/>
<path d="M0 0 C0.33 0.66 0.66 1.32 1 2 C1.99 2 2.98 2 4 2 C4 3.98 4 5.96 4 8 C3.67 6.68 3.34 5.36 3 4 C2.03900391 4.55880859 2.03900391 4.55880859 1.05859375 5.12890625 C-6.04717182 9.0153682 -6.04717182 9.0153682 -10.875 8.9375 C-13.46540491 8.16037853 -15.68677901 7.3879326 -18 6 C-17.67 5.01 -17.34 4.02 -17 3 C-16.113125 3.515625 -15.22625 4.03125 -14.3125 4.5625 C-11.21960028 6.16587213 -11.21960028 6.16587213 -8.5 6 C-5.01004598 4.60401839 -2.78172597 2.52296077 0 0 Z " fill="#2EAA5C" transform="translate(113,85)"/>
<path d="M0 0 C1.15628906 0.01353516 2.31257813 0.02707031 3.50390625 0.04101562 C6.33643004 0.07612956 9.16796307 0.12531 12 0.1875 C12 0.5175 12 0.8475 12 1.1875 C11.34926514 1.20208252 10.69853027 1.21666504 10.02807617 1.23168945 C7.08061694 1.30614549 4.13429358 1.40281266 1.1875 1.5 C0.16333984 1.52255859 -0.86082031 1.54511719 -1.91601562 1.56835938 C-3.39038086 1.6215332 -3.39038086 1.6215332 -4.89453125 1.67578125 C-5.80050049 1.70196533 -6.70646973 1.72814941 -7.63989258 1.75512695 C-10.42666029 2.26566441 -11.14764012 3.12980384 -13 5.1875 C-15.8125 5.8125 -15.8125 5.8125 -19 6.1875 C-20.670625 6.4659375 -20.670625 6.4659375 -22.375 6.75 C-23.24125 6.894375 -24.1075 7.03875 -25 7.1875 C-18.44293618 -0.73561879 -9.43577924 -0.21076483 0 0 Z " fill="#285573" transform="translate(120,31.8125)"/>
<path d="M0 0 C2.6875 0.375 2.6875 0.375 5 2.875 C5.8353125 4.1125 5.8353125 4.1125 6.6875 5.375 C5.3675 5.705 4.0475 6.035 2.6875 6.375 C2.6875 7.365 2.6875 8.355 2.6875 9.375 C-1.1875 8.5 -1.1875 8.5 -2.3125 7.375 C-3.3025 7.045 -4.2925 6.715 -5.3125 6.375 C-3.0508592 0.49473392 -3.0508592 0.49473392 0 0 Z " fill="#104E67" transform="translate(363.3125,64.625)"/>
<path d="M0 0 C3.12901907 2.72088615 3.79138082 4.95300178 4.20532227 9.01464844 C4.24197998 9.7059082 4.2786377 10.39716797 4.31640625 11.109375 C4.35830078 11.86347656 4.40019531 12.61757812 4.44335938 13.39453125 C4.48267578 14.17183594 4.52199219 14.94914062 4.5625 15.75 C4.60568359 16.54277344 4.64886719 17.33554688 4.69335938 18.15234375 C4.79902991 20.10137815 4.89997966 22.05066748 5 24 C4.01 24 3.02 24 2 24 C0.50720433 19.52161299 1.03578471 15.13163194 1.16015625 10.4453125 C1.0045277 7.09740072 0.29970106 5.03444851 -1 2 C-0.67 1.34 -0.34 0.68 0 0 Z " fill="#20506E" transform="translate(191,66)"/>
<path d="M0 0 C2.125 0.9375 2.125 0.9375 4 2 C3.60167969 2.43570313 3.20335938 2.87140625 2.79296875 3.3203125 C-0.48936831 7.00994686 -2.99399746 10.43077198 -5 15 C-5.99 15 -6.98 15 -8 15 C-7.67 13.02 -7.34 11.04 -7 9 C-6.34 9 -5.68 9 -5 9 C-4.87625 8.4225 -4.7525 7.845 -4.625 7.25 C-3.98583433 4.94900359 -3.20694364 3.05890385 -2 1 C-1.34 0.67 -0.68 0.34 0 0 Z " fill="#08545F" transform="translate(83,69)"/>
<path d="M0 0 C1.67299959 0.65061095 3.33859237 1.32033324 5 2 C5.7425 2.28875 6.485 2.5775 7.25 2.875 C9 4 9 4 10.0625 5.8125 C10 8 10 8 7.8125 10.6875 C5.31445381 12.74144909 4.13012711 13.6522081 1 14 C2.29299694 11.11562221 3.65941363 9.12780579 6 7 C5.195625 6.773125 4.39125 6.54625 3.5625 6.3125 C2.716875 5.879375 1.87125 5.44625 1 5 C0.1875 2.375 0.1875 2.375 0 0 Z " fill="#1F516F" transform="translate(69,57)"/>
<path d="M0 0 C2.875 -0.125 2.875 -0.125 6 0 C6.66 0.66 7.32 1.32 8 2 C10.32275177 2.40047444 12.65739357 2.7397104 15 3 C15 3.33 15 3.66 15 4 C11.04168191 4.02892857 7.08339083 4.04677427 3.125 4.0625 C1.43310547 4.07506836 1.43310547 4.07506836 -0.29296875 4.08789062 C-1.36933594 4.09111328 -2.44570312 4.09433594 -3.5546875 4.09765625 C-4.54968262 4.10289307 -5.54467773 4.10812988 -6.56982422 4.11352539 C-9 4 -9 4 -11 3 C-11 2.34 -11 1.68 -11 1 C-7.33333333 1 -3.66666667 1 0 1 C0 0.67 0 0.34 0 0 Z " fill="#316277" transform="translate(145,30)"/>
<path d="M0 0 C2.9375 0.375 2.9375 0.375 6 1 C6.33 1.66 6.66 2.32 7 3 C9.30965848 4.05352843 11.6429774 5.05719096 14 6 C14 6.33 14 6.66 14 7 C12.35 7 10.7 7 9 7 C9 7.66 9 8.32 9 9 C8.01 8.67 7.02 8.34 6 8 C6 7.34 6 6.68 6 6 C4.88625 5.87625 3.7725 5.7525 2.625 5.625 C-1 5 -1 5 -3 3 C-2.01 2.67 -1.02 2.34 0 2 C0 1.34 0 0.68 0 0 Z " fill="#3CB75E" transform="translate(138,5)"/>
<path d="M0 0 C-0.33 0.99 -0.66 1.98 -1 3 C-3.97 2.505 -3.97 2.505 -7 2 C-7.433125 2.928125 -7.433125 2.928125 -7.875 3.875 C-9 6 -9 6 -11 8 C-10.67801034 11.09926819 -10.67801034 11.09926819 -10 14 C-11.65 13.67 -13.3 13.34 -15 13 C-15.48342541 6.71546961 -15.48342541 6.71546961 -13.4375 3.6875 C-9.17785371 0.73851411 -5.12003194 0 0 0 Z " fill="#124C71" transform="translate(226,40)"/>
<path d="M0 0 C0.99 0.33 1.98 0.66 3 1 C2.67 7.93 2.34 14.86 2 22 C3.98 21.67 5.96 21.34 8 21 C8 21.66 8 22.32 8 23 C5.36 23 2.72 23 0 23 C0 15.41 0 7.82 0 0 Z " fill="#224C6C" transform="translate(279,74)"/>
<path d="M0 0 C1.125 2.8125 1.125 2.8125 2 6 C1.01 7.485 1.01 7.485 0 9 C-2.50357192 7.74821404 -4.06433379 6.00018842 -6 4 C-5.34 3.34 -4.68 2.68 -4 2 C-4.99 1.67 -5.98 1.34 -7 1 C-7 1.66 -7 2.32 -7 3 C-8.32 2.67 -9.64 2.34 -11 2 C-11 1.34 -11 0.68 -11 0 C-7.01803543 -1.05404945 -4.01804691 -0.84098656 0 0 Z " fill="#0E5277" transform="translate(325,73)"/>
<path d="M0 0 C-0.33 1.32 -0.66 2.64 -1 4 C-1.66 3.67 -2.32 3.34 -3 3 C-2.814375 4.27875 -2.62875 5.5575 -2.4375 6.875 C-1.84770546 12.02751066 -2.30519936 16.87985373 -3 22 C-3.99 21.67 -4.98 21.34 -6 21 C-5.91288896 18.24849263 -5.80600385 15.50018367 -5.6875 12.75 C-5.66494141 11.97269531 -5.64238281 11.19539063 -5.61914062 10.39453125 C-5.13050881 0 -5.13050881 0 0 0 Z " fill="#12495F" transform="translate(215,75)"/>
<path d="M0 0 C0.99 0.495 0.99 0.495 2 1 C1.98839844 1.62648438 1.97679688 2.25296875 1.96484375 2.8984375 C1.95582031 3.71570313 1.94679688 4.53296875 1.9375 5.375 C1.92589844 6.18710938 1.91429688 6.99921875 1.90234375 7.8359375 C1.85533666 10.04937142 1.85533666 10.04937142 3 12 C2.67 12.66 2.34 13.32 2 14 C2.66 14 3.32 14 4 14 C4 14.99 4 15.98 4 17 C4.66 17 5.32 17 6 17 C6 17.99 6 18.98 6 20 C6.99 20 7.98 20 9 20 C10.8590123 21.57301041 11.90809958 22.81619917 13 25 C12.01 25.33 11.02 25.66 10 26 C10 25.34 10 24.68 10 24 C9.01 23.67 8.02 23.34 7 23 C7 22.34 7 21.68 7 21 C6.34 21 5.68 21 5 21 C1.68819819 17.67816242 0.11596983 14.22536793 -0.32421875 9.57421875 C-0.31370912 6.36878274 -0.21934336 3.19753883 0 0 Z " fill="#096D69" transform="translate(76,84)"/>
<path d="M0 0 C1.37478516 0.01740234 1.37478516 0.01740234 2.77734375 0.03515625 C3.69644531 0.04417969 4.61554688 0.05320312 5.5625 0.0625 C6.27277344 0.07410156 6.98304688 0.08570312 7.71484375 0.09765625 C7.71484375 0.75765625 7.71484375 1.41765625 7.71484375 2.09765625 C5.22419487 2.7847318 3.33598083 3.09765625 0.71484375 3.09765625 C1.70484375 3.42765625 2.69484375 3.75765625 3.71484375 4.09765625 C3.38484375 5.41765625 3.05484375 6.73765625 2.71484375 8.09765625 C1.06484375 8.42765625 -0.58515625 8.75765625 -2.28515625 9.09765625 C-3.68024105 6.79986952 -4.35954244 5.61835955 -3.97265625 2.91015625 C-2.98291274 0.30083245 -2.86236417 0.12232326 0 0 Z " fill="#12435D" transform="translate(243.28515625,31.90234375)"/>
<path d="M0 0 C0.66 0.66 1.32 1.32 2 2 C4.42715206 2.67940467 4.42715206 2.67940467 7.125 3.125 C8.03507812 3.29257813 8.94515625 3.46015625 9.8828125 3.6328125 C10.58148438 3.75398438 11.28015625 3.87515625 12 4 C12 5.98 12 7.96 12 10 C8.6853333 12.02907167 6.5684021 12.12742133 2.75 11.625 C1.85796875 11.51414062 0.9659375 11.40328125 0.046875 11.2890625 C-0.62859375 11.19367188 -1.3040625 11.09828125 -2 11 C-2 10.67 -2 10.34 -2 10 C1.63 10 5.26 10 9 10 C8.67 8.68 8.34 7.36 8 6 C5.36 5.34 2.72 4.68 0 4 C0 2.68 0 1.36 0 0 Z " fill="#41A864" transform="translate(421,86)"/>
<path d="M0 0 C3.16717283 1.58358642 4.73268318 2.45263699 6.3125 5.6875 C6.6528125 6.8321875 6.6528125 6.8321875 7 8 C5.35 8.66 3.7 9.32 2 10 C0.5 8.625 0.5 8.625 -1 7 C-1 6.34 -1 5.68 -1 5 C-1.66 4.67 -2.32 4.34 -3 4 C-2.01 2.68 -1.02 1.36 0 0 Z " fill="#185376" transform="translate(172,34)"/>
<path d="M0 0 C0.66 0 1.32 0 2 0 C2 4.29 2 8.58 2 13 C-2 15 -2 15 -5 15 C-5 14.34 -5 13.68 -5 13 C-4.34 13 -3.68 13 -3 13 C-2.95101563 12.22914062 -2.90203125 11.45828125 -2.8515625 10.6640625 C-2.73941406 9.15972656 -2.73941406 9.15972656 -2.625 7.625 C-2.52058594 6.12839844 -2.52058594 6.12839844 -2.4140625 4.6015625 C-2 2 -2 2 0 0 Z " fill="#16527A" transform="translate(329,80)"/>
<path d="M0 0 C2.67471043 2.67471043 2.32943834 4.14805618 2.375 7.875 C2.40335938 8.92429687 2.43171875 9.97359375 2.4609375 11.0546875 C1.8958809 14.66530339 0.89669259 15.83532359 -2 18 C-2.99 18 -3.98 18 -5 18 C-5 16.35 -5 14.7 -5 13 C-4.01 12.67 -3.02 12.34 -2 12 C-0.78306124 9.56612247 -0.68040104 7.58161154 -0.4375 4.875 C-0.35371094 3.96492188 -0.26992187 3.05484375 -0.18359375 2.1171875 C-0.12300781 1.41851562 -0.06242188 0.71984375 0 0 Z " fill="#1C455D" transform="translate(191,95)"/>
<path d="M0 0 C0 0.66 0 1.32 0 2 C-0.66 2 -1.32 2 -2 2 C-2.20625 2.556875 -2.4125 3.11375 -2.625 3.6875 C-5.37085198 8.30552378 -9.80678108 11.63336344 -15 13 C-17.3125 12.625 -17.3125 12.625 -19 12 C-19 11.34 -19 10.68 -19 10 C-15.04 9.01 -11.08 8.02 -7 7 C-7 6.34 -7 5.68 -7 5 C-6.34 5 -5.68 5 -5 5 C-5 4.01 -5 3.02 -5 2 C-2 0 -2 0 0 0 Z " fill="#1E4963" transform="translate(127,106)"/>
<path d="M0 0 C0.94064619 2.82193857 0.98575338 4.89753723 0.9375 7.9375 C0.89147001 12.0648554 1.43870062 15.29000544 4.3125 18.4375 C5.1478125 19.2109375 5.1478125 19.2109375 6 20 C7.69935049 21.97409578 9.34552706 23.98780319 11 26 C9.35 25.67 7.7 25.34 6 25 C6 24.34 6 23.68 6 23 C5.01 22.67 4.02 22.34 3 22 C-1.31169551 15.47086108 -1.72454724 9.72058531 -1 2 C-0.67 1.34 -0.34 0.68 0 0 Z " fill="#1C9D5D" transform="translate(79,81)"/>
<path d="M0 0 C0.33 0.66 0.66 1.32 1 2 C4.02934491 2.65772428 4.02934491 2.65772428 7 3 C7 3.66 7 4.32 7 5 C5.56342755 5.33730842 4.12569907 5.66969591 2.6875 6 C1.48673828 6.2784375 1.48673828 6.2784375 0.26171875 6.5625 C-2 7 -2 7 -5 7 C-5 6.01 -5 5.02 -5 4 C-5.99 4.495 -5.99 4.495 -7 5 C-6.67 3.68 -6.34 2.36 -6 1 C-3.03 1.495 -3.03 1.495 0 2 C0 1.34 0 0.68 0 0 Z " fill="#16517A" transform="translate(222,73)"/>
<path d="M0 0 C0.99 0 1.98 0 3 0 C3 1.32 3 2.64 3 4 C3.66 4 4.32 4 5 4 C5.125 9.75 5.125 9.75 4 12 C4.66 12 5.32 12 6 12 C5.67 12.99 5.34 13.98 5 15 C2.23776722 12.23776722 2.42143709 9.79293383 2 6 C-0.97 6 -3.94 6 -7 6 C-7 5.34 -7 4.68 -7 4 C-4.69 4 -2.38 4 0 4 C-0.33 3.01 -0.66 2.02 -1 1 C-0.67 0.67 -0.34 0.34 0 0 Z " fill="#184A69" transform="translate(165,97)"/>
<path d="M0 0 C4.95 0.33 9.9 0.66 15 1 C15.33 1.99 15.66 2.98 16 4 C13.89611431 4.05402274 11.79183286 4.09280256 9.6875 4.125 C7.92986328 4.15980469 7.92986328 4.15980469 6.13671875 4.1953125 C3 4 3 4 0 2 C0 1.34 0 0.68 0 0 Z " fill="#1F557D" transform="translate(171,110)"/>
<path d="M0 0 C0.639375 0.804375 1.27875 1.60875 1.9375 2.4375 C3.40603502 4.2750504 3.40603502 4.2750504 5 6 C5.66 4.35 6.32 2.7 7 1 C7.66 1.33 8.32 1.66 9 2 C8.67 4.64 8.34 7.28 8 10 C6.125 10.625 6.125 10.625 4 11 C1.22157405 8.22157405 0.05528792 6.21633419 -0.125 2.25 C-0.063125 1.13625 -0.063125 1.13625 0 0 Z " fill="#154668" transform="translate(245,86)"/>
<path d="M0 0 C0 6.43239741 -0.81016767 11.86846949 -3 18 C-3.66 18 -4.32 18 -5 18 C-4.34 12.39 -3.68 6.78 -3 1 C-3.99 0.67 -4.98 0.34 -6 0 C-3.50907189 -1.24546405 -2.58919267 -0.7767578 0 0 Z " fill="#1D6E71" transform="translate(121,84)"/>
<path d="M0 0 C1.98 0.66 3.96 1.32 6 2 C5.67 4.31 5.34 6.62 5 9 C2.69 8.34 0.38 7.68 -2 7 C-2 3.89448334 -1.4606285 2.64738916 0 0 Z " fill="#124C62" transform="translate(252,33)"/>
<path d="M0 0 C1.9375 1.625 1.9375 1.625 3 4 C2.8125 7.1875 2.8125 7.1875 2 10 C1.01 10.495 1.01 10.495 0 11 C-0.66 10.34 -1.32 9.68 -2 9 C-1.34 8.67 -0.68 8.34 0 8 C-0.33 6.35 -0.66 4.7 -1 3 C-3.44480079 3.18828772 -3.44480079 3.18828772 -6 4 C-7.36020151 5.96758273 -7.36020151 5.96758273 -8 8 C-8 5.69 -8 3.38 -8 1 C-5.17116253 -0.41441874 -3.12623255 -0.31900332 0 0 Z " fill="#2FA95D" transform="translate(402,79)"/>
<path d="M0 0 C0.66 0 1.32 0 2 0 C2.02578125 0.79664062 2.0515625 1.59328125 2.078125 2.4140625 C2.42570556 8.90749931 2.87299806 12.94109439 7 18 C7 18.66 7 19.32 7 20 C7.66 20 8.32 20 9 20 C8.67 20.66 8.34 21.32 8 22 C4.56977646 19.53727541 2.72527393 18.20658881 2 14 C1.34 13.67 0.68 13.34 0 13 C0 8.71 0 4.42 0 0 Z " fill="#084B69" transform="translate(74,85)"/>
<path d="M0 0 C1.98 0 3.96 0 6 0 C5.0501139 8.23234624 5.0501139 8.23234624 3 11 C0.375 12.25 0.375 12.25 -2 13 C-2 12.01 -2 11.02 -2 10 C-0.35 9.34 1.3 8.68 3 8 C2.814375 7.38125 2.62875 6.7625 2.4375 6.125 C2 4 2 4 3 2 C2.01 1.34 1.02 0.68 0 0 Z " fill="#0F3856" transform="translate(292,72)"/>
<path d="M0 0 C1.5 1.1875 1.5 1.1875 3 3 C3.1875 5.6875 3.1875 5.6875 3 8 C1.63875 8.433125 1.63875 8.433125 0.25 8.875 C-2.32202908 9.76531776 -4.61346766 10.71494413 -7 12 C-6.52570343 7.73133091 -3.96478822 5.89066852 -1 3 C-0.67 2.01 -0.34 1.02 0 0 Z " fill="#1D5A76" transform="translate(69,102)"/>
<path d="M0 0 C-0.165 0.61875 -0.33 1.2375 -0.5 1.875 C-1.21748883 4.92432753 -0.79672192 7.01229281 0 10 C-0.99 10 -1.98 10 -3 10 C-3 9.34 -3 8.68 -3 8 C-4.32 7.67 -5.64 7.34 -7 7 C-6.61402985 4.20171644 -6.19863427 3.1794116 -4.0625 1.25 C-2 0 -2 0 0 0 Z " fill="#0E4768" transform="translate(352,86)"/>
<path d="M0 0 C0.99 0 1.98 0 3 0 C3 5.94 3 11.88 3 18 C3.66 18.33 4.32 18.66 5 19 C3.68 19 2.36 19 1 19 C0 16 0 16 0.5 13.4375 C1.16851804 8.84143848 0.58880086 4.58358825 0 0 Z " fill="#164E7B" transform="translate(301,75)"/>
<path d="M0 0 C0 0.99 0 1.98 0 3 C-2.97 2.505 -2.97 2.505 -6 2 C-6.33 2.66 -6.66 3.32 -7 4 C-9.9375 4.75 -9.9375 4.75 -13 5 C-13.66 4.34 -14.32 3.68 -15 3 C-9.55326697 -0.29633454 -6.25490443 -1.56372611 0 0 Z " fill="#235374" transform="translate(245,73)"/>
<path d="M0 0 C1.98 0 3.96 0 6 0 C6.33 1.32 6.66 2.64 7 4 C6.34 4 5.68 4 5 4 C4.67 4.99 4.34 5.98 4 7 C3.01 7.33 2.02 7.66 1 8 C-0.42944945 5.64561267 -1.08661261 4.51967567 -0.625 1.75 C-0.41875 1.1725 -0.2125 0.595 0 0 Z " fill="#C70E42" transform="translate(299,62)"/>
<path d="M0 0 C0.28875 0.61875 0.5775 1.2375 0.875 1.875 C1.93720042 4.13325765 1.93720042 4.13325765 4 6 C2.68 6 1.36 6 0 6 C0.33 6.99 0.66 7.98 1 9 C0.01 9.33 -0.98 9.66 -2 10 C-1.67 8.35 -1.34 6.7 -1 5 C-2.65 6.32 -4.3 7.64 -6 9 C-5.69381595 5.32579134 -5.24228216 4.21864487 -2.4375 1.6875 C-1.633125 1.130625 -0.82875 0.57375 0 0 Z " fill="#204F70" transform="translate(51,120)"/>
<path d="M0 0 C1.32 0.33 2.64 0.66 4 1 C4.33278764 7.81598387 4.24201565 12.92122066 1 19 C0.01 19 -0.98 19 -2 19 C-1.505 17.515 -1.505 17.515 -1 16 C-0.34 16 0.32 16 1 16 C1.144375 14.96875 1.28875 13.9375 1.4375 12.875 C1.91660457 9.57450187 2.43875083 6.28731659 3 3 C2.01 3 1.02 3 0 3 C0 2.01 0 1.02 0 0 Z " fill="#2B9264" transform="translate(114,84)"/>
<path d="M0 0 C1.2065625 0.0309375 1.2065625 0.0309375 2.4375 0.0625 C-0.64882611 3.3251876 -3.49733504 6.08485218 -7.5625 8.0625 C-8.2225 7.7325 -8.8825 7.4025 -9.5625 7.0625 C-8.31047133 3.30641399 -6.93186427 2.91565035 -3.5625 1.0625 C-2.5625 0.0625 -2.5625 0.0625 0 0 Z " fill="#124563" transform="translate(62.5625,123.9375)"/>
<path d="M0 0 C1.05960938 0.00676758 1.05960938 0.00676758 2.140625 0.01367188 C3.88545275 0.02546125 5.630237 0.04339676 7.375 0.0625 C8.035 1.7125 8.695 3.3625 9.375 5.0625 C8.055 6.0525 6.735 7.0425 5.375 8.0625 C5.705 6.0825 6.035 4.1025 6.375 2.0625 C3.91626232 2.20308476 1.45814825 2.34972999 -1 2.5 C-1.69867188 2.53931641 -2.39734375 2.57863281 -3.1171875 2.61914062 C-6.99860492 2.80530134 -6.99860492 2.80530134 -10.625 4.0625 C-10.295 3.0725 -9.965 2.0825 -9.625 1.0625 C-6.55966836 -0.47016582 -3.35745728 -0.04026471 0 0 Z " fill="#299867" transform="translate(98.625,67.9375)"/>
<path d="M0 0 C0.99 0.33 1.98 0.66 3 1 C1.7391988 2.03319813 0.46596742 3.05124379 -0.8125 4.0625 C-1.87404297 4.91521484 -1.87404297 4.91521484 -2.95703125 5.78515625 C-3.63121094 6.18605469 -4.30539063 6.58695313 -5 7 C-5.99 6.67 -6.98 6.34 -8 6 C-7.67 4.68 -7.34 3.36 -7 2 C-6.21625 1.855625 -5.4325 1.71125 -4.625 1.5625 C-2.03578982 1.12201075 -2.03578982 1.12201075 0 0 Z " fill="#4EA66C" transform="translate(127,12)"/>
<path d="M0 0 C2.97 0.495 2.97 0.495 6 1 C6 2.32 6 3.64 6 5 C3.36 5.33 0.72 5.66 -2 6 C-2 5.01 -2 4.02 -2 3 C-1.34 3 -0.68 3 0 3 C0 2.01 0 1.02 0 0 Z " fill="#18AD54" transform="translate(381,91)"/>
<path d="M0 0 C0.66 1.32 1.32 2.64 2 4 C-0.46153846 7.81538462 -0.46153846 7.81538462 -3.1875 8.75 C-4.0846875 8.87375 -4.0846875 8.87375 -5 9 C-5.33 8.01 -5.66 7.02 -6 6 C-2.83636364 1.41818182 -2.83636364 1.41818182 0 0 Z " fill="#184169" transform="translate(340,73)"/>
<path d="M0 0 C0 2.31 0 4.62 0 7 C-0.33 7 -0.66 7 -1 7 C-1.33 5.35 -1.66 3.7 -2 2 C-5.16666667 3.83333333 -5.16666667 3.83333333 -7 7 C-7 6.34 -7 5.68 -7 5 C-7.66 4.67 -8.32 4.34 -9 4 C-8.1875 2.0625 -8.1875 2.0625 -7 0 C-3.86650268 -1.04449911 -3.01031744 -0.93423645 0 0 Z " fill="#13425D" transform="translate(270,54)"/>
<path d="M0 0 C0.99 0 1.98 0 3 0 C2.4140625 6.15234375 2.4140625 6.15234375 2 8 C1.01 8.495 1.01 8.495 0 9 C-0.33 7.35 -0.66 5.7 -1 4 C-1.66 5.65 -2.32 7.3 -3 9 C-3.75 7.3125 -3.75 7.3125 -4 5 C-2.25 2.25 -2.25 2.25 0 0 Z " fill="#BB4E64" transform="translate(299,51)"/>
<path d="M0 0 C2.4375 1.5625 2.4375 1.5625 5 4 C5.8125 7.75 5.8125 7.75 6 11 C3.03 10.505 3.03 10.505 0 10 C0.99 9.67 1.98 9.34 3 9 C2.505 8.071875 2.01 7.14375 1.5 6.1875 C0 3 0 3 0 0 Z " fill="#194460" transform="translate(292,86)"/>
<path d="M0 0 C0.66 1.32 1.32 2.64 2 4 C3.32 4 4.64 4 6 4 C6 8.62 6 13.24 6 18 C5.67 18 5.34 18 5 18 C5 13.71 5 9.42 5 5 C4.01 5 3.02 5 2 5 C1.67 6.32 1.34 7.64 1 9 C0.67 9 0.34 9 0 9 C-0.87890625 2.84765625 -0.87890625 2.84765625 -1 1 C-0.67 0.67 -0.34 0.34 0 0 Z " fill="#1C3C60" transform="translate(299,70)"/>
<path d="M0 0 C0.66 0.33 1.32 0.66 2 1 C1.690625 1.7425 1.38125 2.485 1.0625 3.25 C-0.03185708 5.87867962 -0.03185708 5.87867962 -0.5 8.25 C-0.665 8.8275 -0.83 9.405 -1 10 C-1.99 10.495 -1.99 10.495 -3 11 C-5 9 -5 9 -5.125 6.375 C-5.08375 5.59125 -5.0425 4.8075 -5 4 C-3.35 3.34 -1.7 2.68 0 2 C0 1.34 0 0.68 0 0 Z " fill="#114361" transform="translate(257,75)"/>
<path d="M0 0 C1.32 0.33 2.64 0.66 4 1 C4.84454356 4.37817425 5.10844919 6.67465243 4 10 C2.68 10 1.36 10 0 10 C0.66 7.03 1.32 4.06 2 1 C1.34 0.67 0.68 0.34 0 0 Z " fill="#214955" transform="translate(375,71)"/>
<path d="M0 0 C1.32 0 2.64 0 4 0 C3.67 0.99 3.34 1.98 3 3 C2.34 3 1.68 3 1 3 C0.67 3.66 0.34 4.32 0 5 C-2.32156597 5.40729228 -4.6568787 5.74438677 -7 6 C-6.67 4.68 -6.34 3.36 -6 2 C-4.35 2.33 -2.7 2.66 -1 3 C-0.67 2.01 -0.34 1.02 0 0 Z " fill="#1B517A" transform="translate(189,56)"/>
<path d="M0 0 C0.33 0.66 0.66 1.32 1 2 C3.52733235 2.65555119 3.52733235 2.65555119 6 3 C4.25 5.0625 4.25 5.0625 2 7 C-0.25 6.75 -0.25 6.75 -2 6 C-2 3 -2 3 0 0 Z " fill="#43B25F" transform="translate(126,17)"/>
<path d="M0 0 C3.63 0.33 7.26 0.66 11 1 C11 1.99 11 2.98 11 4 C3.51234156 4.3682455 3.51234156 4.3682455 1 2.5625 C0 1 0 1 0 0 Z " fill="#08B544" transform="translate(418,91)"/>
<path d="M0 0 C2.0625 1.6875 2.0625 1.6875 4 4 C3.75 6.75 3.75 6.75 3 9 C1.68 9 0.36 9 -1 9 C-1.09765625 2.84765625 -1.09765625 2.84765625 -1 1 C-0.67 0.67 -0.34 0.34 0 0 Z " fill="#154E76" transform="translate(291,88)"/>
<path d="M0 0 C0 0.99 0 1.98 0 3 C0.66 3.66 1.32 4.32 2 5 C-1.25 5.3125 -1.25 5.3125 -5 5 C-7.4375 2.5 -7.4375 2.5 -9 0 C-5.62182575 -0.84454356 -3.32534757 -1.10844919 0 0 Z " fill="#43B169" transform="translate(149,16)"/>
<path d="M0 0 C-0.99 1.485 -0.99 1.485 -2 3 C-2.16713569 5.62531524 -2.16713569 5.62531524 -2 8 C-2.66 7.34 -3.32 6.68 -4 6 C-4 5.34 -4 4.68 -4 4 C-6.475 3.01 -6.475 3.01 -9 2 C-9 1.34 -9 0.68 -9 0 C-2.25 -1.125 -2.25 -1.125 0 0 Z " fill="#3CB15D" transform="translate(145,24)"/>
<path d="M0 0 C0.90105469 0.01804687 1.80210937 0.03609375 2.73046875 0.0546875 C3.41753906 0.07789063 4.10460937 0.10109375 4.8125 0.125 C4.8125 0.785 4.8125 1.445 4.8125 2.125 C-2.61607143 4.55357143 -2.61607143 4.55357143 -6.1875 3.125 C-6.5175 3.785 -6.8475 4.445 -7.1875 5.125 C-7.5175 4.135 -7.8475 3.145 -8.1875 2.125 C-4.87379 -0.08414 -3.8428979 -0.09981553 0 0 Z " fill="#46B25A" transform="translate(127.1875,9.875)"/>
<path d="M0 0 C-0.33 4.95 -0.66 9.9 -1 15 C-1.33 15 -1.66 15 -2 15 C-2.06058594 14.32453125 -2.12117188 13.6490625 -2.18359375 12.953125 C-2.26738281 12.06109375 -2.35117187 11.1690625 -2.4375 10.25 C-2.51871094 9.36828125 -2.59992188 8.4865625 -2.68359375 7.578125 C-2.96238465 5.30649548 -3.38790577 3.20148177 -4 1 C-5.32 0.67 -6.64 0.34 -8 0 C-2.25 -1.125 -2.25 -1.125 0 0 Z " fill="#17415E" transform="translate(279,72)"/>
<path d="M0 0 C-0.99 1.98 -1.98 3.96 -3 6 C-4.9375 5.625 -4.9375 5.625 -7 5 C-7.33 4.34 -7.66 3.68 -8 3 C-7.34 3 -6.68 3 -6 3 C-6 2.01 -6 1.02 -6 0 C-2.25 -1.125 -2.25 -1.125 0 0 Z " fill="#5DA880" transform="translate(157,20)"/>
<path d="M0 0 C0.33 0 0.66 0 1 0 C1.29296875 6.0546875 1.29296875 6.0546875 1 8 C0.01 8.66 -0.98 9.32 -2 10 C-2 9.01 -2 8.02 -2 7 C-2.66 7 -3.32 7 -4 7 C-3.02065619 4.06196857 -1.95168368 2.35828444 0 0 Z " fill="#1B4A6E" transform="translate(123,83)"/>
<path d="M0 0 C2.62527189 -0.05382106 5.24944713 -0.09358313 7.875 -0.125 C8.62136719 -0.14175781 9.36773437 -0.15851563 10.13671875 -0.17578125 C12.09194461 -0.1933959 14.04742021 -0.10320189 16 0 C16.66 0.66 17.32 1.32 18 2 C13.63158064 2.93608986 10.36158692 2.90866394 6 2 C4 1.66666667 2 1.33333333 0 1 C0 0.67 0 0.34 0 0 Z " fill="#1D6370" transform="translate(90,66)"/>
<path d="M0 0 C-0.33 0.99 -0.66 1.98 -1 3 C-2.2684375 2.8453125 -2.2684375 2.8453125 -3.5625 2.6875 C-8.13454663 3.1031406 -10.54189139 5.13529464 -14 8 C-14.33 7.34 -14.66 6.68 -15 6 C-10.86791011 1.04149214 -6.31338906 0 0 0 Z " fill="#18394D" transform="translate(226,40)"/>
<path d="M0 0 C4.77576339 0.4682121 8.04476345 1.24331998 12 4 C11.67 4.99 11.34 5.98 11 7 C7.37 5.02 3.74 3.04 0 1 C0 0.67 0 0.34 0 0 Z " fill="#4FB274" transform="translate(144,7)"/>
<path d="M0 0 C1.65 0 3.3 0 5 0 C5.66 1.65 6.32 3.3 7 5 C6.01 5 5.02 5 4 5 C4 4.34 4 3.68 4 3 C1.00667261 3.9977758 0.05233685 4.7522025 -2 7 C-2 5.35 -2 3.7 -2 2 C-1.34 2 -0.68 2 0 2 C0 1.34 0 0.68 0 0 Z " fill="#19517A" transform="translate(258,76)"/>
<path d="M0 0 C0 0.66 0 1.32 0 2 C-2.31 1.67 -4.62 1.34 -7 1 C-7 1.66 -7 2.32 -7 3 C-8.32 2.67 -9.64 2.34 -11 2 C-11 1.34 -11 0.68 -11 0 C-7.01803543 -1.05404945 -4.01804691 -0.84098656 0 0 Z " fill="#245676" transform="translate(325,73)"/>
<path d="M0 0 C-1.1094072 3.48670834 -2.26337666 6.77484237 -4 10 C-5.32 10 -6.64 10 -8 10 C-8 8 -8 8 -6.625 6.375 C-5 5 -5 5 -3 5 C-3.33 3.68 -3.66 2.36 -4 1 C-2 0 -2 0 0 0 Z " fill="#A23252" transform="translate(309,61)"/>
<path d="M0 0 C0.33 2.64 0.66 5.28 1 8 C-0.98 7.01 -2.96 6.02 -5 5 C-2.74193548 0 -2.74193548 0 0 0 Z " fill="#14567E" transform="translate(269,55)"/>
<path d="M0 0 C-3.74095194 2.50014115 -6.44209421 1.90042304 -10.75 1.125 C-11.92046875 0.92132813 -13.0909375 0.71765625 -14.296875 0.5078125 C-15.18890625 0.34023438 -16.0809375 0.17265625 -17 0 C-17 -0.33 -17 -0.66 -17 -1 C-10.73960391 -1.93213141 -5.97802937 -2.20927172 0 0 Z " fill="#29546E" transform="translate(169,33)"/>
<path d="M0 0 C-0.33 1.65 -0.66 3.3 -1 5 C-0.01 5.33 0.98 5.66 2 6 C-0.64 6 -3.28 6 -6 6 C-5.6875 4.125 -5.6875 4.125 -5 2 C-2 0 -2 0 0 0 Z " fill="#154569" transform="translate(50,125)"/>
<path d="M0 0 C0.70511719 0.30679688 1.41023438 0.61359375 2.13671875 0.9296875 C5.04265573 2.01594498 7.75754152 2.6097058 10.8125 3.125 C11.78832031 3.29257813 12.76414062 3.46015625 13.76953125 3.6328125 C14.50558594 3.75398438 15.24164063 3.87515625 16 4 C16 4.33 16 4.66 16 5 C14.20991533 5.22151549 12.41781838 5.42682213 10.625 5.625 C9.62726563 5.74101563 8.62953125 5.85703125 7.6015625 5.9765625 C6.74304688 5.98429687 5.88453125 5.99203125 5 6 C3.10646634 4.10646634 1.5801368 2.15473199 0 0 Z " fill="#1DB158" transform="translate(86,103)"/>
<path d="M0 0 C3.96 0 7.92 0 12 0 C12 0.99 12 1.98 12 3 C7.71 2.67 3.42 2.34 -1 2 C-0.67 1.34 -0.34 0.68 0 0 Z " fill="#183F57" transform="translate(263,95)"/>
<path d="M0 0 C1.65 1.65 3.3 3.3 5 5 C4 6 4 6 1.0625 6.125 C-2 6 -2 6 -4 5 C-4 4.34 -4 3.68 -4 3 C-3.01 2.67 -2.02 2.34 -1 2 C-0.67 1.34 -0.34 0.68 0 0 Z " fill="#175474" transform="translate(366,88)"/>
<path d="M0 0 C0.99 0 1.98 0 3 0 C2.67 5.94 2.34 11.88 2 18 C1.67 18 1.34 18 1 18 C0.67 12.06 0.34 6.12 0 0 Z " fill="#1E5369" transform="translate(356,72)"/>
<path d="M0 0 C1.65 0 3.3 0 5 0 C4.95875 0.94875 4.9175 1.8975 4.875 2.875 C4.65026182 6.10244856 4.65026182 6.10244856 7 8 C4.625 8.1875 4.625 8.1875 2 8 C1.34 7.01 0.68 6.02 0 5 C0.66 4.67 1.32 4.34 2 4 C2 3.34 2 2.68 2 2 C1.34 1.34 0.68 0.68 0 0 Z " fill="#4CC370" transform="translate(147,12)"/>
<path d="M0 0 C0.99 0.33 1.98 0.66 3 1 C3 1.99 3 2.98 3 4 C3.99 4 4.98 4 6 4 C7.8590123 5.57301041 8.90809958 6.81619917 10 9 C9.01 9.33 8.02 9.66 7 10 C7 9.34 7 8.68 7 8 C6.01 7.67 5.02 7.34 4 7 C4 6.34 4 5.68 4 5 C3.34 5 2.68 5 2 5 C1.34 3.35 0.68 1.7 0 0 Z " fill="#156A6D" transform="translate(79,100)"/>
<path d="M0 0 C0.99 0.33 1.98 0.66 3 1 C3 1.66 3 2.32 3 3 C4.32 3.33 5.64 3.66 7 4 C7 4.99 7 5.98 7 7 C6.67 6.34 6.34 5.68 6 5 C5.34 5 4.68 5 4 5 C3.67 5.99 3.34 6.98 3 8 C1.58622659 5.36095629 0.62759865 2.92879371 0 0 Z " fill="#284A72" transform="translate(177,53)"/>
<path d="M0 0 C0.99 0.66 1.98 1.32 3 2 C3 2.66 3 3.32 3 4 C3.66 4.33 4.32 4.66 5 5 C4.01 5.33 3.02 5.66 2 6 C2 5.34 2 4.68 2 4 C1.01 4 0.02 4 -1 4 C-1.33 4.99 -1.66 5.98 -2 7 C-2.66 6.01 -3.32 5.02 -4 4 C-3.34 4 -2.68 4 -2 4 C-2 3.34 -2 2.68 -2 2 C-1.34 2 -0.68 2 0 2 C0 1.34 0 0.68 0 0 Z " fill="#0C486A" transform="translate(255,43)"/>
<path d="M0 0 C0.66 0.99 1.32 1.98 2 3 C0.8125 4.5 0.8125 4.5 -1 6 C-3.6875 6.1875 -3.6875 6.1875 -6 6 C-5.34 5.67 -4.68 5.34 -4 5 C-3.67 4.34 -3.34 3.68 -3 3 C-2 1 -2 1 0 0 Z " fill="#45A66F" transform="translate(135,24)"/>
<path d="M0 0 C0.33 0 0.66 0 1 0 C1.37211538 7.56634615 1.37211538 7.56634615 -0.51171875 9.76171875 C-1.00285156 10.17035156 -1.49398437 10.57898437 -2 11 C-2.05399736 9.54207116 -2.09279177 8.08357288 -2.125 6.625 C-2.15980469 5.40683594 -2.15980469 5.40683594 -2.1953125 4.1640625 C-2 2 -2 2 0 0 Z " fill="#1D4360" transform="translate(234,49)"/>
<path d="M0 0 C1.32 0.66 2.64 1.32 4 2 C0.535 4.97 0.535 4.97 -3 8 C-3.66 7.67 -4.32 7.34 -5 7 C-4.0409375 6.1028125 -4.0409375 6.1028125 -3.0625 5.1875 C-0.79689611 3.09189663 -0.79689611 3.09189663 0 0 Z " fill="#1E435D" transform="translate(72,114)"/>
<path d="M0 0 C1.74965358 -0.05429959 3.49979787 -0.09292823 5.25 -0.125 C6.22453125 -0.14820313 7.1990625 -0.17140625 8.203125 -0.1953125 C11.0196498 0.00137219 12.60949036 0.55431084 15 2 C15 2.66 15 3.32 15 4 C14.34 4 13.68 4 13 4 C13 3.34 13 2.68 13 2 C12.01 2.33 11.02 2.66 10 3 C7.51953125 2.66015625 7.51953125 2.66015625 4.8125 2.0625 C3.91144531 1.86785156 3.01039062 1.67320313 2.08203125 1.47265625 C1.39496094 1.31667969 0.70789063 1.16070312 0 1 C0 0.67 0 0.34 0 0 Z " fill="#295673" transform="translate(98,57)"/>
<path d="M0 0 C0.99 0 1.98 0 3 0 C3 1.98 3 3.96 3 6 C0.525 5.01 0.525 5.01 -2 4 C-1.34 2.68 -0.68 1.36 0 0 Z " fill="#0E4465" transform="translate(275,43)"/>
<path d="M0 0 C0.66 0 1.32 0 2 0 C2.125 5.75 2.125 5.75 1 8 C1.66 8 2.32 8 3 8 C2.67 8.99 2.34 9.98 2 11 C-0.7865517 8.2134483 -0.65662895 5.84575573 -1 2 C-0.67 1.34 -0.34 0.68 0 0 Z " fill="#164254" transform="translate(168,101)"/>
<path d="M0 0 C0.33 0.66 0.66 1.32 1 2 C-0.65 3.65 -2.3 5.3 -4 7 C-4.99 6.34 -5.98 5.68 -7 5 C-4.69 3.35 -2.38 1.7 0 0 Z " fill="#26A465" transform="translate(112,101)"/>
<path d="M0 0 C3.3 0.33 6.6 0.66 10 1 C9.01 2.485 9.01 2.485 8 4 C6.0546875 4.29296875 6.0546875 4.29296875 3.875 4.1875 C2.59625 4.125625 1.3175 4.06375 0 4 C0 2.68 0 1.36 0 0 Z " fill="#0DB747" transform="translate(98,92)"/>
<path d="M0 0 C6.75 2.625 6.75 2.625 9 6 C6.03 5.01 3.06 4.02 0 3 C0 2.01 0 1.02 0 0 Z " fill="#1FAB58" transform="translate(95,88)"/>
<path d="M0 0 C0.99 0.33 1.98 0.66 3 1 C2.67 2.32 2.34 3.64 2 5 C1.34 5 0.68 5 0 5 C-0.33 5.66 -0.66 6.32 -1 7 C-1.66 6.67 -2.32 6.34 -3 6 C-1.125 1.125 -1.125 1.125 0 0 Z " fill="#1B485A" transform="translate(361,65)"/>
<path d="M0 0 C0.66 0 1.32 0 2 0 C2.33 0.99 2.66 1.98 3 3 C-0.06117568 5.62386487 -0.73173127 6 -5 6 C-5 5.34 -5 4.68 -5 4 C-3.125 2.9375 -3.125 2.9375 -1 2 C-0.34 2.33 0.32 2.66 1 3 C0.67 2.01 0.34 1.02 0 0 Z " fill="#234C6A" transform="translate(229,59)"/>
<path d="M0 0 C2.375 0.3125 2.375 0.3125 5 1 C7.29013653 4.4352048 7.17842973 5.985331 7 10 C5 8 5 8 4.0625 5.5625 C3.0121686 3.02934779 2.04778552 1.76854204 0 0 Z " fill="#C5526F" transform="translate(303,51)"/>
<path d="M0 0 C-0.66 1.32 -1.32 2.64 -2 4 C-4.97 3.505 -4.97 3.505 -8 3 C-8 2.34 -8 1.68 -8 1 C-5.23735711 0.40267181 -2.83967231 0 0 0 Z " fill="#1B4F6D" transform="translate(116,115)"/>
<path d="M0 0 C1.65 0 3.3 0 5 0 C5 0.99 5 1.98 5 3 C3 4.6875 3 4.6875 1 6 C0.67 4.02 0.34 2.04 0 0 Z " fill="#205179" transform="translate(308,73)"/>
<path d="M0 0 C1.98 0 3.96 0 6 0 C3.6875 2.5 3.6875 2.5 1 5 C0.01 5 -0.98 5 -2 5 C-1.34 3.35 -0.68 1.7 0 0 Z " fill="#1E537E" transform="translate(269,73)"/>
<path d="M0 0 C2.62187494 1.04874998 3.79371361 1.64931313 5.25 4.125 C5.4975 4.74375 5.745 5.3625 6 6 C3.13275314 5.42655063 2.1385485 5.1385485 0 3 C0 2.01 0 1.02 0 0 Z " fill="#1C456B" transform="translate(245,74)"/>
<path d="M0 0 C1.98 0.66 3.96 1.32 6 2 C6 3.65 6 5.3 6 7 C5.34 6.67 4.68 6.34 4 6 C4 5.01 4 4.02 4 3 C2.68 3 1.36 3 0 3 C0 2.01 0 1.02 0 0 Z " fill="#394767" transform="translate(301,71)"/>
<path d="M0 0 C0.99 0 1.98 0 3 0 C4.125 3.75 4.125 3.75 3 6 C2.34 6 1.68 6 1 6 C1 5.34 1 4.68 1 4 C0.34 4 -0.32 4 -1 4 C-0.67 2.68 -0.34 1.36 0 0 Z " fill="#113A4B" transform="translate(210,67)"/>
<path d="M0 0 C1.26237731 2.52475462 1.09856404 4.31200466 1.0625 7.125 C1.05347656 8.03507812 1.04445313 8.94515625 1.03515625 9.8828125 C1.02355469 10.58148438 1.01195312 11.28015625 1 12 C-1 11 -1 11 -2 8 C-2.66 7.67 -3.32 7.34 -4 7 C-3.67 6.34 -3.34 5.68 -3 5 C-2.505 3.9790625 -2.505 3.9790625 -2 2.9375 C-1 1 -1 1 0 0 Z " fill="#B52B52" transform="translate(298,54)"/>
<path d="M0 0 C1.5625 1.8125 1.5625 1.8125 3 4 C2.67 4.99 2.34 5.98 2 7 C0.35 6.67 -1.3 6.34 -3 6 C-2.01 4.02 -1.02 2.04 0 0 Z " fill="#134E63" transform="translate(240,41)"/>
<path d="M0 0 C1.65 0 3.3 0 5 0 C2.51047079 2.66735273 0.36591866 4.55746343 -3 6 C-3.33 5.34 -3.66 4.68 -4 4 C-3.34 4 -2.68 4 -2 4 C-1.34 2.68 -0.68 1.36 0 0 Z " fill="#124761" transform="translate(100,42)"/>
<path d="M0 0 C2 3 2 3 2 5 C0.68 5 -0.64 5 -2 5 C-2.33 5.66 -2.66 6.32 -3 7 C-3.66 6.67 -4.32 6.34 -5 6 C-5 5.01 -5 4.02 -5 3 C-3.35 2.67 -1.7 2.34 0 2 C0 1.34 0 0.68 0 0 Z " fill="#35A295" transform="translate(148,26)"/>
<path d="M0 0 C2.97 0.99 5.94 1.98 9 3 C6.00468461 3.99843846 4.82744268 4.00732761 1.8125 3.5625 C0.554375 3.376875 -0.70375 3.19125 -2 3 C-1.34 2.01 -0.68 1.02 0 0 Z " fill="#164D5D" transform="translate(371,94)"/>
<path d="M0 0 C0.66 0.33 1.32 0.66 2 1 C1.67 3.31 1.34 5.62 1 8 C0.01 8 -0.98 8 -2 8 C-1.125 1.125 -1.125 1.125 0 0 Z " fill="#0A4157" transform="translate(252,87)"/>
<path d="M0 0 C0.66 0.99 1.32 1.98 2 3 C-1.9813783 4.3271261 -5.85045227 4.06915913 -10 4 C-10 3.34 -10 2.68 -10 2 C-9.04287109 1.90912109 -9.04287109 1.90912109 -8.06640625 1.81640625 C-6.82697266 1.69072266 -6.82697266 1.69072266 -5.5625 1.5625 C-4.73878906 1.48128906 -3.91507812 1.40007812 -3.06640625 1.31640625 C-1.01337975 1.21069185 -1.01337975 1.21069185 0 0 Z " fill="#1EBD54" transform="translate(404,72)"/>
<path d="M0 0 C1.98 0 3.96 0 6 0 C6 1.65 6 3.3 6 5 C4.68 5 3.36 5 2 5 C2.33 4.01 2.66 3.02 3 2 C2.01 1.34 1.02 0.68 0 0 Z " fill="#1A3D5B" transform="translate(292,72)"/>
<path d="M0 0 C0.66 0 1.32 0 2 0 C2 0.66 2 1.32 2 2 C2.99 2.33 3.98 2.66 5 3 C4.67 4.32 4.34 5.64 4 7 C3.01 6.67 2.02 6.34 1 6 C0.67 4.02 0.34 2.04 0 0 Z " fill="#18496B" transform="translate(214,62)"/>
<path d="M0 0 C0.33 0 0.66 0 1 0 C1 2.64 1 5.28 1 8 C0.01 8.33 -0.98 8.66 -2 9 C-2.25 3.375 -2.25 3.375 0 0 Z " fill="#0B536D" transform="translate(301,76)"/>
<path d="M0 0 C1.98 0.66 3.96 1.32 6 2 C4.68 2.99 3.36 3.98 2 5 C1.01 4.34 0.02 3.68 -1 3 C-0.67 2.01 -0.34 1.02 0 0 Z " fill="#215374" transform="translate(218,56)"/>
<path d="M0 0 C2.97 0 5.94 0 9 0 C9 0.66 9 1.32 9 2 C5.67465243 3.10844919 3.37817425 2.84454356 0 2 C0 1.34 0 0.68 0 0 Z " fill="#006666" transform="translate(242,32)"/>
<path d="M0 0 C2.475 0.495 2.475 0.495 5 1 C5 1.66 5 2.32 5 3 C6.32 3.33 7.64 3.66 9 4 C3.375 4.25 3.375 4.25 0 2 C0 1.34 0 0.68 0 0 Z " fill="#264C67" transform="translate(171,110)"/>
<path d="M0 0 C1.5625 1.125 1.5625 1.125 3 3 C2.6875 6.1875 2.6875 6.1875 2 9 C0.4375 7.3125 0.4375 7.3125 -1 5 C-0.6875 2.25 -0.6875 2.25 0 0 Z " fill="#0F4062" transform="translate(300,82)"/>
<path d="M0 0 C0.66 0 1.32 0 2 0 C2 1.65 2 3.3 2 5 C0.68 5 -0.64 5 -2 5 C-1.125 1.125 -1.125 1.125 0 0 Z " fill="#0D4F75" transform="translate(329,80)"/>
<path d="M0 0 C1.32 0.33 2.64 0.66 4 1 C2.71937515 2.7074998 1.38232443 4.37373596 0 6 C-0.66 6 -1.32 6 -2 6 C-1.34 4.02 -0.68 2.04 0 0 Z " fill="#1CA25D" transform="translate(84,72)"/>
<path d="M0 0 C0.66 0 1.32 0 2 0 C2.66 1.65 3.32 3.3 4 5 C2.68 5.99 1.36 6.98 0 8 C0 5.36 0 2.72 0 0 Z " fill="#438372" transform="translate(104,68)"/>
<path d="M0 0 C1.32 0.66 2.64 1.32 4 2 C2.35 3.98 0.7 5.96 -1 8 C-1 5.16032769 -0.59732819 2.76264289 0 0 Z " fill="#0C605A" transform="translate(83,69)"/>
<path d="M0 0 C2.64 0 5.28 0 8 0 C8 0.66 8 1.32 8 2 C2.25 3.125 2.25 3.125 0 2 C0 1.34 0 0.68 0 0 Z " fill="#4FAC7B" transform="translate(140,13)"/>
<path d="" fill="#000000" transform="translate(0,0)"/>
<path d="" fill="#008080" transform="translate(0,0)"/>
<path d="" fill="#000000" transform="translate(0,0)"/>
<path d="" fill="#000000" transform="translate(0,0)"/>
<path d="" fill="#008080" transform="translate(0,0)"/>
<path d="" fill="#008080" transform="translate(0,0)"/>
<path d="" fill="#000000" transform="translate(0,0)"/>
<path d="" fill="#000000" transform="translate(0,0)"/>
<path d="" fill="#000000" transform="translate(0,0)"/>
<path d="" fill="#FF0000" transform="translate(0,0)"/>
<path d="" fill="#000080" transform="translate(0,0)"/>
</svg>
