<?xml version="1.0" standalone="no"?>
<!DOCTYPE svg PUBLIC "-//W3C//DTD SVG 20010904//EN"
 "http://www.w3.org/TR/2001/REC-SVG-20010904/DTD/svg10.dtd">
<svg version="1.0" xmlns="http://www.w3.org/2000/svg"
 width="215.000000pt" height="234.000000pt" viewBox="0 0 215.000000 234.000000"
 preserveAspectRatio="xMidYMid meet">

<g transform="translate(0.000000,234.000000) scale(0.100000,-0.100000)"
fill="#000000" stroke="none">
<path d="M257 2051 c-134 -237 -134 -238 -158 -328 -33 -131 -20 -282 34 -403
13 -30 52 -100 87 -155 101 -159 123 -215 128 -316 6 -122 -12 -172 -140 -397
-60 -106 -108 -198 -105 -205 3 -7 37 -29 75 -50 l71 -37 116 204 c147 257
159 292 159 456 1 167 -17 223 -139 420 -110 179 -130 238 -122 357 3 43 10
94 16 113 9 29 151 290 222 406 l19 32 -79 44 -79 45 -105 -186z"/>
<path d="M1019 2036 c-148 -261 -163 -303 -163 -466 0 -160 18 -214 142 -417
100 -165 122 -223 122 -329 0 -106 -24 -169 -144 -379 -59 -103 -106 -191
-104 -196 2 -5 35 -28 75 -49 l71 -40 107 185 c58 102 115 205 125 229 58 130
65 318 18 453 -15 40 -65 135 -112 211 -100 161 -116 200 -123 305 -9 114 12
177 124 374 52 93 104 182 114 199 l19 32 -78 44 -79 45 -114 -201z"/>
<path d="M1789 2036 c-147 -258 -163 -303 -163 -461 0 -160 22 -227 139 -415
99 -160 125 -229 125 -335 0 -107 -24 -170 -144 -379 -58 -102 -106 -189 -106
-194 0 -12 144 -92 152 -84 23 24 231 406 250 461 19 56 23 86 23 196 -1 164
-18 218 -137 412 -102 168 -119 207 -125 303 -9 133 18 199 239 576 l19 32
-79 44 -79 45 -114 -201z"/>
</g>
</svg>
