<?xml version="1.0" standalone="no"?>
<!DOCTYPE svg PUBLIC "-//W3C//DTD SVG 20010904//EN"
 "http://www.w3.org/TR/2001/REC-SVG-20010904/DTD/svg10.dtd">
<svg version="1.0" xmlns="http://www.w3.org/2000/svg"
 width="300.000000pt" height="300.000000pt" viewBox="0 0 300.000000 300.000000"
 preserveAspectRatio="xMidYMid meet">

<g transform="translate(0.000000,300.000000) scale(0.100000,-0.100000)"
fill="#000000" stroke="none">
<path d="M683 2729 c-72 -35 -130 -125 -160 -246 -23 -94 -23 -361 0 -498 45
-262 131 -580 264 -977 97 -291 80 -274 177 -186 131 117 230 271 267 416 50
196 2 362 -186 647 -95 143 -148 241 -160 295 -12 51 -7 160 9 212 7 25 29 70
49 99 60 91 70 134 41 194 -23 49 -65 65 -171 65 -69 0 -97 -4 -130 -21z"/>
<path d="M1381 830 c-85 -45 -171 -104 -298 -203 -118 -91 -123 -104 -73 -179
46 -69 123 -136 198 -171 l67 -32 450 -3 c502 -3 500 -3 570 65 63 61 75 100
75 243 0 140 -12 181 -70 238 -72 72 -38 68 -619 74 l-233 3 -67 -35z"/>
</g>
</svg>
