<?xml version="1.0" standalone="no"?>
<!DOCTYPE svg PUBLIC "-//W3C//DTD SVG 20010904//EN"
 "http://www.w3.org/TR/2001/REC-SVG-20010904/DTD/svg10.dtd">
<svg version="1.0" xmlns="http://www.w3.org/2000/svg"
 width="512.000000pt" height="512.000000pt" viewBox="0 0 512.000000 512.000000"
 preserveAspectRatio="xMidYMid meet">

<g transform="translate(0.000000,512.000000) scale(0.100000,-0.100000)"
fill="#000000" stroke="none">
<path d="M2445 4613 c-441 -57 -790 -336 -938 -750 -41 -114 -60 -234 -60
-373 1 -153 27 -282 88 -432 7 -17 -4 -18 -146 -18 -85 0 -183 -5 -219 -11
-143 -22 -276 -118 -343 -247 -63 -122 -95 -89 306 -324 194 -114 735 -432
1202 -707 l850 -501 31 33 c17 17 253 271 525 562 272 292 527 565 568 608
l74 77 -33 103 c-17 56 -46 128 -62 159 -40 75 -131 161 -210 198 -83 38 -161
50 -345 50 -84 0 -153 1 -153 3 0 2 13 39 29 84 86 233 87 516 4 748 -140 388
-479 670 -880 730 -91 14 -217 17 -288 8z m216 -654 c174 -37 320 -175 363
-344 35 -132 12 -276 -62 -391 -50 -77 -109 -128 -202 -173 -74 -35 -77 -36
-200 -36 -123 0 -126 1 -200 36 -93 45 -152 96 -202 173 -98 152 -105 347 -17
502 29 52 102 129 154 165 101 68 243 94 366 68z"/>
<path d="M890 1435 l-605 -424 -3 -62 c-10 -213 172 -423 398 -459 40 -6 394
-10 926 -10 l861 0 179 192 c98 106 209 225 246 264 l68 71 -725 427 c-399
234 -728 426 -732 425 -5 0 -280 -191 -613 -424z"/>
</g>
</svg>
